<svg xmlns="http://www.w3.org/2000/svg" fill="none" viewBox="0 0 312 248"><g clip-path="url(#a)"><path fill="#151515" d="M362.112 74.874a8.32 8.32 0 0 0-.879-1.327c-.202-.25-.419-.502-.676-.701-.1-.091-.363-.276-.622-.47-3.337-2.524-6.717-5.009-10.063-7.522-3.654-2.742-7.29-5.505-10.947-8.242a230.725 230.725 0 0 0-3.289-2.428c-.075-.057-.157-.114-.232-.169.069-.03.139-.057.205-.087.547-.233 1.09-.475 1.646-.696 5.128-2.068 9.981-4.753 14.919-7.202.229-.07.462.097.688.227.939 1.563 2.564 2.887 4.376 3.099 2.509.272 4.08-2.367 3.672-4.629-.719-2.5-2.585-5.04-5.067-5.98-.647-.297-1.854.18-2.534.864-.097-.06-25.156 3.97-25.156 3.97-.314.115 0-38.06 0-38.06l-12.572.224v38.45c-.051-.015-1.196-.647-1.247-.665a2.937 2.937 0 0 1-.411-.182.991.991 0 0 1-.205-.133c-.112-.057-.224-.109-.335-.16-.335-.163-.674-.32-1.009-.475l-.045-.024-.021-.009a.781.781 0 0 0-.085-.04l-.232-.102h.006c-.034-.012-.064-.033-.097-.045-.8-.366-1.622-.747-2.446-1.125-.009-.006-.021-.012-.039-.021a.912.912 0 0 1-.061-.027c-.226-.103-.465-.215-.703-.321l-.145-.07c-.103-.045-.233-.108-.369-.163a415.667 415.667 0 0 0-4.364-1.974c-1.648-.735-3.303-1.463-4.992-2.105-.73-.278-1.47-.532-2.204-.81-.402-.151-.797-.314-1.196-.477-.184-.076-.368-.149-.55-.221-.096-.04-.205-.097-.308-.106-.012 0-.015.012-.018.033 0 .043.04.1.082.148-.036-.012-.07-.012-.094 0-.389-.19-.842-.042-1.232.064-.072.012-.151.048-.151.133-.184.09-.377.193-.541.336 0 0-.006 0-.006.005-.22.112-.422.227-.607.33-5.701 3.142.019 10.026 4.512 10.818 1.287.287 2.776.278 3.848-.586 1.159-.932 1.887-2.812.851-4.076.982.865 1.972 1.714 2.969 2.558 1.733 1.46 3.473 2.917 5.2 4.387.296.25.592.508.894.759.145.124.293.248.441.372-.465.227-.93.462-1.386.704l-.076.04c.23.244.571.492.74.592.045.021.103.054.157.054.507-.23 1.003-.514 1.516-.734.897-.469 1.918-.705 2.869-1.061-.951.356-1.972.595-2.872 1.064-.51.22-1.009.505-1.516.734-.054 0-.112-.033-.157-.054a4.02 4.02 0 0 1-.74-.593c-1.477.778-2.932 1.603-4.382 2.422-1.452.82-2.893 1.66-4.336 2.5-1.489.871-2.978 1.745-4.476 2.61-1.489.85-2.98 1.693-4.478 2.528-2.948 1.645-5.883 3.304-8.831 4.946-1.398.777-2.796 1.557-4.2 2.331-.634.354-1.263.702-1.9 1.04l-.565.3c-.084.045-.166.1-.256.139-.094.012 0 .193.021.227.03.057.057.114.097.169-.012.009-.022.012-.037.021-.063.045-.205.118-.205.215 0 0 .006.006.006.009-4.388 3.002 1.25 9.672 5.445 10.3 3.135.633 7.686-1.106 7.462-4.852-.549-2.63-2.558-5.524-5.149-6.576a54.278 54.278 0 0 0 1.99-.58c1.685-.53 3.355-1.089 5.031-1.66 3.35-1.134 6.699-2.277 10.042-3.426 1.636-.566 3.273-1.13 4.904-1.708 1.595-.563 3.18-1.146 4.775-1.7 1.491-.517 2.998-1.022 4.481-1.563.311-.115.625-.227.936-.344.755 1.6 2.471 2.555 4.195 2.854 2.642.614 5.427.033 7.873-1.043l.142-.064.184.106a5.7 5.7 0 0 1 .139.082c.269.16.543.314.815.477 1.263.732 2.522 1.485 3.784 2.223 3.153 1.835 6.321 3.64 9.471 5.478 2.965 1.736 5.961 3.432 9.005 5.025.033.015.06.034.097.052-.082.072-.154.139-.218.193-2.772 3.175.861 8.176 4.041 9.527.368.118.755.173 1.138.173 1.157 0 2.323-.493 3.15-1.282 1.229-1.264 1.121-3.063 1.012-4.69.398-.674 1.443-.822 1.637-1.605.018-.103-.012-.082-.052-.14.027.019.052.034.076.055.075.054.169.109.241.109.064 0 .109-.046.103-.178-.021-.264-.181-.542-.302-.775v-.018Z"/><path fill="#55FFAD" d="M315.587 47.103c-1.706.82-3.412 1.636-5.115 2.456-.236.111-.354.734.009.562 1.706-.82 3.412-1.636 5.115-2.455.236-.112.354-.735-.009-.563ZM321.669 24.844c-11.557.977-53.953-16.668-53.15-19.417 2.12-7.268 41.119-29.031 47.793-29.47 6.674-.435 54.026 21.434 54.026 21.434s-43.218 26.99-48.666 27.453h-.003Z"/><path fill="#151515" d="M321.787 24.533c-2.316.178-4.681-.236-6.946-.687-3.234-.643-6.417-1.53-9.57-2.49-7.326-2.238-14.528-4.935-21.577-7.932-2.905-1.233-5.789-2.521-8.613-3.933-1.821-.913-3.726-1.838-5.357-3.078-.287-.218-.915-.608-.969-1.01-.07-.51.751-1.406 1.041-1.772 1.562-1.956 3.594-3.561 5.563-5.082 5.832-4.505 12.185-8.372 18.585-12.012 5.753-3.275 11.647-6.498 17.808-8.941 1.471-.584 3.162-1.352 4.775-1.333 1.612.018 3.364.625 4.922 1.103 5.94 1.83 11.723 4.227 17.461 6.6 10.316 4.267 20.53 8.79 30.67 13.45.194.09.39.177.583.268l.166-.574c-13.182 8.233-26.46 16.48-40.207 23.74-1.721.91-3.458 1.805-5.236 2.597-.988.442-2.069.98-3.162 1.092-.251.024-.468.647-.115.61 2.341-.235 4.811-1.826 6.852-2.869 4.065-2.08 8.042-4.335 12.001-6.615 8.23-4.74 16.356-9.654 24.444-14.628a905.731 905.731 0 0 0 5.432-3.362c.121-.076.396-.469.166-.574a890.747 890.747 0 0 0-27.885-12.312c-6.209-2.612-12.452-5.21-18.839-7.36-1.954-.658-3.956-1.342-5.997-1.671-1.453-.233-2.736.097-4.119.565-5.901 2.005-11.509 5.1-16.948 8.1-6.653 3.67-13.212 7.604-19.367 12.07-2.31 1.675-4.608 3.429-6.613 5.47-.767.782-2.622 2.482-2.468 3.752.121 1.003 1.888 1.84 2.619 2.28 2.234 1.35 4.602 2.485 6.967 3.582 6.891 3.202 13.994 5.987 21.181 8.45 6.245 2.142 12.762 4.349 19.361 5.041 1.048.109 2.105.17 3.156.088.262-.021.513-.644.232-.623h.003Z"/><path fill="#151515" d="M341.199-46.108c10.102-9.261-19.107 74.56-19.119 74.856l-13.091-.58s18.53-61.735 32.21-74.276Z"/><path fill="#55FFAD" d="M341.266-45.87c2.624-2.373 1.648 3.65 1.482 4.726-.915 5.923-2.573 11.753-4.194 17.512-4.026 14.293-8.649 28.421-13.366 42.499-.798 2.38-1.601 4.759-2.407 7.135-.302.895-.788 1.869-.939 2.81l.356-.373-13.091-.58.099.332c2.153-7.171 4.527-14.283 6.988-21.355 4.503-12.943 9.296-25.92 15.48-38.165 2.561-5.07 5.373-10.625 9.595-14.537.211-.197.193-.774-.133-.475-3.537 3.277-6.037 7.698-8.299 11.9-3.183 5.911-5.895 12.076-8.447 18.284-4.901 11.93-9.174 24.127-13.133 36.403a402.044 402.044 0 0 0-2.483 7.906c-.03.097-.066.323.1.333l13.091.58c.182.01.33-.215.357-.372.081-.52.583-1.73.821-2.43.725-2.141 1.45-4.279 2.168-6.423A1416.514 1416.514 0 0 0 331.91-.266c2.461-7.71 4.859-15.44 7.054-23.233 1.68-5.956 3.425-11.997 4.322-18.134.22-1.518.939-7.502-2.15-4.708-.215.193-.197.77.133.475l-.003-.003Z"/><path fill="#151515" d="M319.803 32.037c-34.068-8.341-48.753-19.553-49.952-20.859-1.202-1.306-3.135-4.293-2.244-5.119.891-.825 26.427 13.34 52.574 20.125l-.378 5.856v-.003Z"/><path fill="#151515" d="M319.918 31.726c-10.926-2.688-21.728-6.06-32.032-10.61-5.34-2.358-10.655-5-15.459-8.344-.855-.596-1.755-1.2-2.471-1.966-.715-.765-1.334-1.696-1.802-2.624-.212-.42-.967-1.711-.309-1.817.659-.106 1.843.662 2.392.898 8.166 3.498 16.157 7.365 24.407 10.673 6.436 2.579 12.965 4.943 19.609 6.93.875.263 1.754.517 2.633.765.797.223 1.924.332 2.645.722.52.281.266-.205.375.396.051.282-.043.675-.061.959-.096 1.487-.193 2.975-.287 4.462-.024.393.475-.018.49-.272.127-1.953.25-3.903.377-5.856a.16.16 0 0 0-.127-.176c-11.838-3.093-23.295-7.495-34.502-12.372-3.929-1.708-7.822-3.492-11.723-5.267-1.278-.58-2.555-1.167-3.851-1.711-.631-.266-1.41-.714-2.105-.771-2.573-.212.656 4.647 1.1 5.194.685.844 1.555 1.479 2.434 2.108 4.384 3.138 9.265 5.63 14.154 7.87 10.85 4.977 22.305 8.58 33.88 11.429.251.06.538-.547.233-.623v.003ZM186.516 218.3l176.43-101.867-9.284-5.379-176.97 101.831 9.824 5.415Z"/><path fill="#151515" d="M186.522 218.582c5.874-3.39 11.745-6.782 17.618-10.172a906796.942 906796.942 0 0 0 93.122-53.766l43.943-25.371c4.853-2.803 9.706-5.605 14.559-8.405 2.268-1.309 4.745-2.479 6.892-3.979.09-.063.196-.112.293-.169.139-.082.38-.451.166-.575l-4.385-2.54-3.15-1.823c-.423-.245-1.229-.952-1.727-1-.417-.04-.976.447-1.326.65l-9.609 5.53c-5.835 3.359-11.669 6.715-17.507 10.074-7.692 4.426-15.383 8.853-23.078 13.279l-26.325 15.148c-8.776 5.049-18.164 10.452-27.248 15.68-8.655 4.979-17.311 9.959-25.963 14.939a83309.13 83309.13 0 0 1-22.096 12.714c-5.346 3.075-10.691 6.153-16.036 9.227-2.537 1.461-5.194 2.806-7.649 4.403-.106.069-.221.127-.33.19-.136.079-.383.457-.166.575l9.827 5.415c.245.136.583-.454.338-.59l-9.827-5.415-.166.574 5.204-2.993 14.166-8.151 20.696-11.91c8.325-4.792 16.651-9.581 24.98-14.373 9.036-5.198 18.072-10.398 27.104-15.596 8.891-5.115 17.778-10.231 26.669-15.347l24.069-13.851 19.179-11.035c4.011-2.307 8.021-4.617 12.034-6.924.852-.49 1.692-1.022 2.564-1.476.305-.16.287-.109.191-.127.573.112 1.292.75 1.796 1.04l3.171 1.839c1.42.822 2.839 1.644 4.255 2.467l.167-.575c-5.874 3.39-11.745 6.782-17.619 10.171l-42.034 24.27-51.088 29.497-43.942 25.371c-4.853 2.802-9.706 5.605-14.559 8.405-2.265 1.309-4.745 2.479-6.892 3.979-.091.063-.196.112-.293.169-.223.13-.335.762.009.563l.003-.006Z"/><path fill="#151515" d="m186.516 219.065-10.412-6.074.386-70.275L-92.174-16.898l-.616 72.162-9.965-5.603.948-77.217 288.121 167.472.202 79.149Z"/><path fill="#151515" d="m186.688 218.769-9.331-5.442c-.263-.155-.532-.303-.791-.463-.133-.082-.354-.296-.218-.012-.033-.067.012-.212 0-.284-.081-.614.006-1.297.009-1.917l.115-20.639c.084-15.495.169-30.991.257-46.486 0-.508.093-.853-.218-1.197-.311-.345-.972-.578-1.356-.805l-6.864-4.078-27.557-16.373c-13.595-8.078-27.194-16.154-40.79-24.233L51.928 68.313 2.615 39.016-41.56 12.769-74.987-7.09l-16.308-9.687-.71-.42c-.214-.127-.413.272-.413.429l-.209 24.363c-.111 12.95-.22 25.903-.332 38.852-.024 2.981-.051 5.963-.075 8.947l.413-.43c-2.82-1.584-5.638-3.168-8.458-4.755-.402-.227-1.063-.46-1.399-.787-.208-.205.049.26-.033-.03-.096-.342.012-.861.015-1.215l.191-15.541c.196-16.052.392-32.104.591-48.155.049-4.06.1-8.118.148-12.18l-.413.43c3.868 2.25 7.737 4.496 11.605 6.746 10.25 5.959 20.5 11.915 30.749 17.875l43.792 25.454L34.9 52.296l51.571 29.978c15.369 8.931 30.734 17.866 46.102 26.797l35.016 20.354 17.582 10.22c.251.145.77.323.958.556-.185-.233-.052.169-.064.442-.033.755.003 1.523.006 2.282l.055 21.497.132 51.521c0 1.085.007 2.168.01 3.253 0 .399.489-.012.489-.272-.012-4.254-.021-8.511-.033-12.765l-.073-27.865c-.024-9.143-.048-18.283-.069-27.426-.006-2.839-.015-5.675-.022-8.514 0-.638.293-2.183-.087-2.739-.148-.215-.692-.403-.909-.53l-2.386-1.384c-2.935-1.709-5.874-3.414-8.809-5.122l-13.638-7.928c-5.855-3.404-11.711-6.809-17.567-10.21-6.93-4.027-13.861-8.058-20.789-12.085L99.126 88.84 74.05 74.263 48.169 59.22C39.483 54.172 30.8 49.123 22.115 44.077 13.629 39.146 5.143 34.21-3.343 29.28c-8.072-4.693-16.144-9.385-24.216-14.075-7.324-4.257-14.644-8.51-21.967-12.768-6.36-3.698-12.72-7.392-19.08-11.09a39735.8 39735.8 0 0 0-15.429-8.968c-3.687-2.143-7.375-4.287-11.062-6.428l-5.816-3.38c-.242-.142-.486-.281-.728-.423-.217-.127-.414.269-.414.43-.105 8.713-.214 17.427-.32 26.14-.169 13.87-.341 27.738-.51 41.607a7476.7 7476.7 0 0 0-.115 9.47c0 .054.024.13.075.157l9.966 5.602c.218.121.414-.266.414-.43l.208-24.363c.112-12.95.22-25.902.333-38.852l.075-8.946-.414.43 10.651 6.327C-72.336-4.722-62.98.835-53.627 6.395l40.258 23.919L33.165 57.96l47.787 28.39 43.04 25.57 33.237 19.747 17.588 10.449c.426.251.963.475 1.341.798.157.133.157.115.084-.048.112.251-.006.834-.006 1.097l-.096 17.694-.266 48.267-.018 3.205c0 .057.021.127.075.157l10.413 6.071c.239.139.583-.447.338-.589h.006Z"/><path fill="#151515" d="M-92.484 54.66 83.504-47.784l-9.199-5.213L-101.99 49.365l9.507 5.294Z"/><path fill="#151515" d="m-92.482 54.94 17.576-10.228c13.977-8.136 27.953-16.273 41.932-24.409C-15.987 10.416 1 .526 17.986-9.36l43.835-25.516 14.523-8.454c2.262-1.315 4.729-2.497 6.876-4.003.09-.063.196-.114.293-.169.139-.082.38-.453.166-.574-1.489-.844-2.98-1.688-4.47-2.534l-3.143-1.781c-.366-.209-1.136-.865-1.576-.892-.441-.027-1.006.484-1.36.69l-9.609 5.578c-5.834 3.386-11.666 6.773-17.5 10.162-7.683 4.46-15.366 8.92-23.045 13.382L-3.291-8.221-30.331 7.48c-9.015 5.234-17.172 9.972-25.758 14.955-7.341 4.263-14.682 8.526-22.024 12.786l-15.909 9.237c-2.53 1.47-5.185 2.83-7.634 4.432-.106.07-.221.127-.329.19-.136.08-.384.454-.166.575 3.167 1.766 6.338 3.532 9.506 5.294.245.137.583-.453.339-.59-3.168-1.765-6.34-3.53-9.507-5.293l-.166.574c1.73-1.004 3.46-2.01 5.194-3.014l14.052-8.16c6.873-3.992 13.75-7.983 20.623-11.974 8.301-4.82 16.603-9.639 24.905-14.461C-28.24 6.824-19.273 1.62-10.307-3.586-1.34-8.792 7.345-13.836 16.17-18.957c8.012-4.65 16.02-9.303 24.032-13.953L59.37-44.04l12.013-6.975c.87-.505 1.748-.995 2.61-1.515.229-.14.407-.13.177-.163.508.072 1.226.695 1.667.943l3.171 1.796 4.34 2.458.166-.574c-5.859 3.41-11.717 6.82-17.576 10.228-13.976 8.136-27.952 16.273-41.931 24.409C7.018-3.546-9.968 6.344-26.957 16.23A549843.415 549843.415 0 0 1-85.311 50.2c-2.262 1.315-4.73 2.497-6.877 4.003-.09.063-.196.114-.293.169-.223.13-.335.762.01.562l-.01.006Z"/><path fill="#151515" d="m363.577 116.432-10.063-5.865.034-70.481L84.887-119.528l-.616 72.162-9.966-5.606.945-77.214L363.371 37.286l.206 79.146Z"/><path fill="#151515" d="M363.746 116.139c-3.089-1.802-6.179-3.604-9.268-5.403-.19-.112-.855-.614-.719-.32-.036-.079 0-.279 0-.363V108l.009-20.938.021-46.163c0-.517.091-.846-.22-1.194s-1-.596-1.398-.832l-6.919-4.108-27.551-16.37-40.817-24.248c-16.008-9.512-32.02-19.024-48.029-28.533-16.008-9.509-32.787-19.48-49.182-29.22l-44.384-26.367-33.219-19.735-16.322-9.696c-.233-.136-.462-.275-.695-.411-.214-.127-.414.272-.414.429l-.208 24.364c-.112 12.95-.22 25.902-.332 38.852-.024 2.98-.052 5.962-.076 8.946l.414-.43c-2.82-1.583-5.638-3.168-8.459-4.755-.401-.227-1.063-.46-1.398-.786-.208-.206.048.26-.033-.03-.097-.342.012-.862.015-1.216l.19-15.54c.197-16.053.393-32.104.592-48.156.048-4.061.1-8.118.148-12.179l-.414.43 11.606 6.745 30.749 17.875c14.598 8.484 29.196 16.97 43.791 25.455l50.735 29.488 51.571 29.978c15.368 8.931 30.734 17.866 46.102 26.797l35.016 20.355 17.582 10.22c.251.144.77.323.957.555-.184-.232-.051.17-.063.442-.033.756.003 1.524.006 2.283l.054 21.497.133 51.52c0 1.086.006 2.168.009 3.253 0 .4.489-.012.489-.272-.012-4.254-.021-8.511-.033-12.765l-.072-27.865c-.024-9.143-.049-18.283-.07-27.426-.006-2.839-.015-5.675-.021-8.514 0-.638.293-2.183-.088-2.74-.147-.214-.691-.401-.909-.528l-2.385-1.385c-2.936-1.708-5.874-3.414-8.809-5.122l-13.638-7.928c-5.856-3.404-11.711-6.808-17.567-10.21-6.931-4.027-13.862-8.057-20.789-12.085l-23.25-13.515-25.075-14.576L225.225-43.4c-8.685-5.046-17.367-10.096-26.052-15.142-8.686-5.046-16.972-9.865-25.458-14.797-8.486-4.931-16.145-9.385-24.217-14.074l-21.967-12.768-19.08-11.091c-5.142-2.99-10.285-5.98-15.428-8.967a15776.35 15776.35 0 0 0-11.062-6.428l-5.817-3.381c-.241-.142-.486-.281-.727-.423-.218-.127-.414.269-.414.429-.106 8.714-.215 17.428-.32 26.142-.17 13.868-.342 27.737-.51 41.606-.04 3.157-.08 6.313-.115 9.47 0 .054.024.13.075.157l9.966 5.602c.217.121.414-.266.414-.429l.208-24.363c.112-12.95.22-25.903.332-38.852.024-2.981.052-5.963.076-8.947l-.414.429c3.772 2.241 7.544 4.484 11.319 6.725l29.691 17.639c14.1 8.375 28.197 16.753 42.297 25.128 16.187 9.615 32.371 19.233 48.557 28.847l48.86 29.026 43.103 25.606c10.431 6.195 20.858 12.393 31.289 18.589 3.114 1.85 6.227 3.7 9.341 5.548l2.748 1.632c.408.242.993.466 1.338.796.196.184.024-.1.045-.046.13.336 0 .974 0 1.328 0 2.455 0 4.907-.003 7.362-.003 8.635-.009 17.27-.012 25.902l-.012 26.268v7.816c-.003.463-.148 1.182-.006 1.624.166.508.697.659 1.19.946 2.983 1.739 5.964 3.477 8.948 5.219.238.139.583-.448.338-.59Z"/><path fill="#55FFAD" d="M76.105-129.424-101.59-27.556l286.94 167.753L362.945 37.894 76.105-129.424Z"/><path fill="#151515" d="m76.099-129.705-17.612 10.096c-14.17 8.124-28.34 16.245-42.512 24.369-17.083 9.793-34.167 19.586-51.25 29.382-14.825 8.5-29.653 16.999-44.478 25.498-4.865 2.79-9.73 5.578-14.595 8.369-2.168 1.242-5.031 2.34-6.937 3.976-.084.072-.208.12-.305.175-.142.081-.38.45-.166.574l7.707 4.505 20.84 12.182 30.791 18.002 37.755 22.072C9.06 37.515 22.782 45.54 36.502 53.562c13.919 8.136 27.837 16.275 41.756 24.411l38.755 22.659c10.971 6.412 21.939 12.828 32.911 19.241a287611.951 287611.951 0 0 0 30.933 18.087c1.229.716 2.521 1.732 3.85 2.249.166.064.323.191.477.281.052.031.127.015.175-.015l17.604-10.141c14.163-8.157 28.323-16.317 42.487-24.475l51.223-29.506c14.819-8.535 29.638-17.07 44.454-25.61l14.589-8.402c2.168-1.248 5.028-2.352 6.934-3.994.084-.072.208-.12.305-.175.138-.082.38-.45.166-.574-2.549-1.488-5.098-2.972-7.647-4.46l-20.937-12.212-30.83-17.984c-12.536-7.31-25.068-14.622-37.604-21.935-13.729-8.01-27.46-16.016-41.189-24.025-13.928-8.124-27.852-16.248-41.78-24.37-12.925-7.537-25.848-15.078-38.773-22.615a653536.99 653536.99 0 0 0-32.775-19.118l-23.68-13.811-7.295-4.257c-1.211-.705-2.534-1.772-3.857-2.25-.166-.06-.326-.19-.48-.278-.239-.139-.58.447-.338.59l7.646 4.459c6.98 4.07 13.958 8.143 20.937 12.212 10.277 5.996 20.554 11.988 30.831 17.984 12.535 7.31 25.068 14.622 37.604 21.935 13.728 8.01 27.46 16.016 41.188 24.025 13.729 8.01 27.853 16.248 41.781 24.37 12.925 7.537 25.847 15.078 38.772 22.615l32.776 19.118 23.679 13.811 7.296 4.258c1.12.653 2.588 1.926 3.856 2.249.16.04.335.194.48.278l.167-.574c-9.706 5.59-19.412 11.184-29.121 16.774l-62.896 36.23-61.22 35.267-18.974 10.93-4.524 2.606c-.199.115-.583.451-.818.472-.037.003.265-.018-.058-.1-.761-.191-1.649-.965-2.316-1.355l-4.642-2.712c-5.242-3.065-10.485-6.131-15.727-9.194-16.854-9.854-33.712-19.707-50.566-29.56L47.075 58.96a916614.896 916614.896 0 0 1-66.01-38.591C-36.87 9.884-54.805-.601-72.737-11.087l-27.446-16.046c-.407-.239-.815-.477-1.226-.716l-.166.574 17.612-10.095 42.512-24.37a451295.01 451295.01 0 0 0 51.25-29.382l44.478-25.497c4.865-2.791 9.73-5.579 14.595-8.369 2.156-1.237 5.056-2.334 6.937-3.976.085-.073.208-.121.305-.176.224-.127.338-.758-.009-.562l-.006-.003Z"/><path fill="#55FFAD" d="M187.905 218.847v-13.442c0-.399-.489.012-.489.272v13.443c0 .399.489-.013.489-.273ZM263.889-1.805l20.466 11.707-27.288 15.19-20.46-11.734 27.282-15.163Z"/><path fill="#151515" d="M263.72-1.508c6.822 3.903 13.644 7.803 20.469 11.707l.166-.575-20.789 11.571-4.895 2.724c-.435.242-.867.505-1.314.732-.374.187-.127.118-.205.097-.393-.1-.849-.487-1.196-.687l-2.313-1.327-6.375-3.655c-3.497-2.005-6.994-4.01-10.491-6.017l-.167.574c7.973-4.432 15.949-8.862 23.921-13.294l3.361-1.869c.227-.124.342-.755-.009-.562-7.972 4.433-15.948 8.862-23.92 13.294l-3.362 1.869c-.142.079-.38.454-.166.574 2.978 1.709 5.956 3.417 8.933 5.122 3.681 2.11 7.311 4.484 11.113 6.37.586.291.62.21 1.211-.12l4.044-2.25c4.458-2.479 8.915-4.961 13.369-7.44l9.253-5.153c.142-.078.381-.453.166-.574-6.822-3.903-13.644-7.804-20.469-11.707-.241-.14-.582.45-.338.59l.003.006Z"/><path fill="#55FFAD" d="m273.429-.084 20.466 11.707-27.288 15.187-20.463-11.735 27.285-15.16Z"/><path fill="#151515" d="M273.257.209c6.822 3.903 13.644 7.804 20.469 11.707l.166-.575-20.789 11.571-4.895 2.725c-.435.241-.867.505-1.314.731-.374.188-.127.118-.205.097-.393-.1-.849-.487-1.196-.686l-2.313-1.328-6.375-3.655c-3.497-2.005-6.995-4.01-10.492-6.017l-.166.575c7.973-4.433 15.948-8.862 23.921-13.295l3.361-1.868c.227-.124.341-.756-.009-.563-7.972 4.433-15.948 8.862-23.921 13.295l-3.361 1.868c-.142.079-.38.454-.166.575 2.978 1.708 5.955 3.416 8.933 5.122 3.681 2.11 7.311 4.483 11.113 6.37.586.29.619.209 1.211-.12l4.044-2.25 13.369-7.441c3.083-1.718 6.17-3.435 9.253-5.152.142-.079.381-.454.166-.575-6.822-3.903-13.644-7.803-20.469-11.707-.241-.139-.583.45-.338.59l.003.006ZM214.124 6.09l35.919 20.59-17.981 10.385-35.9-20.68 17.962-10.296Z"/><path fill="#55FFAD" d="M213.952 6.383c10.509 6.025 21.019 12.048 31.528 18.074l4.394 2.519.166-.575c-3.724 2.153-7.45 4.303-11.174 6.455l-5.973 3.45c-.254.145-.951.414-.673.457-.221-.033-.529-.306-.719-.414l-26.014-14.985-9.153-5.273-.166.575L214.127 6.37c.224-.127.338-.758-.009-.562l-17.959 10.295c-.139.079-.381.45-.166.575l22.86 13.17 11.799 6.797c.486.281.988.747 1.516.644.529-.103 1.187-.687 1.64-.947l2.999-1.732c4.415-2.549 8.827-5.098 13.242-7.65.139-.081.381-.45.166-.574-10.509-6.026-21.018-12.049-31.528-18.074-1.464-.841-2.929-1.678-4.394-2.519-.241-.14-.583.45-.338.59h-.003Z"/><path fill="#151515" d="m196.162 19.74 35.922 20.594-.022-3.269-35.9-20.68v3.355Z"/><path fill="#55FFAD" d="m195.993 20.034 31.528 18.074c1.464.84 2.929 1.678 4.393 2.519.215.124.417-.27.414-.43-.006-.777-.009-1.557-.015-2.334 0-.314.097-.831-.09-1.097-.221-.315-1.021-.587-1.338-.771-2.6-1.5-5.204-2.997-7.804-4.496l-21.429-12.345c-1.773-1.022-3.545-2.044-5.318-3.063-.215-.124-.414.269-.414.43v3.355c0 .4.489-.012.489-.272v-3.356l-.413.43c11.143 6.418 22.29 12.84 33.433 19.26.719.413 1.631.773 2.268 1.305.29.242.148-.118.127.415-.033.934.012 1.874.018 2.808l.414-.429-31.528-18.074-4.394-2.519c-.242-.14-.583.45-.338.59h-.003Z"/><path fill="#151515" d="M250.043 29.999v-3.28l-17.981 10.346.022 3.268L250.043 30Z"/><path fill="#55FFAD" d="M250.288 29.863v-3.28c0-.143-.124-.218-.251-.146l-17.981 10.347a.513.513 0 0 0-.241.417c.006 1.088.012 2.177.021 3.268 0 .143.124.218.251.146l17.959-10.335c.224-.127.338-.759-.009-.562-2.603 1.497-5.203 2.993-7.806 4.493l-5.805 3.34c-1.259.723-2.718 1.352-3.874 2.23-.1.075-.275.19-.396.226-.205.063.193.305.169.063-.075-.807.299-2.131-.018-2.872-.172-.405-.211.109-.163.103.1-.012.211-.142.302-.175.525-.191 1.039-.596 1.522-.877 3.702-2.132 7.405-4.26 11.104-6.392 1.453-.837 3.171-1.57 4.506-2.591a1.92 1.92 0 0 1 .39-.224c.021-.009.048-.04.072-.042-.486.078-.085-.224-.245.218-.274.764 0 2.089 0 2.914 0 .4.49-.012.49-.272l.003.003Z"/><path fill="#151515" d="m212.962 19.015 14.054 8.054-.009-9.127-14.045-8.091v9.164Z"/><path fill="#55FFAD" d="m212.792 19.308 14.055 8.058c.214.124.414-.27.414-.43 0-3.041-.006-6.086-.009-9.128 0-.057-.021-.127-.076-.157l-14.045-8.09c-.215-.125-.414.269-.414.429v9.164c0 .4.489-.012.489-.272V9.718l-.414.429c4.092 2.358 8.184 4.714 12.273 7.072.459.263 1.411.583 1.749 1.007-.13-.166-.045.02-.048.281-.013.532 0 1.064 0 1.596 0 2.368.003 4.738.006 7.106l.413-.43-14.054-8.057c-.242-.14-.583.45-.339.59v-.004Z"/><path fill="#151515" d="m233.195 23.445.051-9.204-6.184 3.658-.046 9.17 6.179-3.624Z"/><path fill="#55FFAD" d="M233.44 23.308c.018-3.068.033-6.137.051-9.206 0-.142-.124-.218-.251-.145l-4.107 2.43c-.697.415-2.081.862-2.319 1.697-.142.496-.006 1.218-.009 1.732l-.015 3.102c-.006 1.43-.015 2.858-.021 4.288 0 .142.123.217.25.145 2.06-1.21 4.119-2.416 6.179-3.625.22-.13.335-.762-.009-.563-.858.505-1.718 1.007-2.576 1.512l-1.767 1.037c-.429.251-1.244.532-1.567.92-.248.295-.033.32-.018.105.033-.444.003-.904.006-1.351l.021-4.511c.003-.868.266-2.193.015-3.033.079.26-.486.375.217.063.559-.248 1.094-.647 1.622-.958 1.187-.704 2.552-1.321 3.648-2.159.112-.085.251-.148.369-.218.172-.102-.163-.175-.16-.145.033.384-.003.79-.006 1.17l-.046 7.986c0 .399.49-.016.49-.273h.003Z"/><path fill="#151515" d="m184.84-4.547 71.85 41.192-.039-46.668L184.84-51.39v46.843Z"/><path fill="#55FFAD" d="M184.671-4.25c8.115 4.65 16.226 9.302 24.341 13.953 12.876 7.383 25.753 14.763 38.63 22.147l8.879 5.088c.214.124.414-.269.414-.429-.013-13.63-.025-27.263-.034-40.893 0-1.926-.003-3.849-.006-5.775 0-.057-.021-.127-.075-.157-8.109-4.671-16.217-9.343-24.329-14.014l-38.609-22.24-8.873-5.11c-.214-.124-.413.269-.413.429v46.843c0 .399.489-.012.489-.272v-46.843l-.414.429c5.309 3.06 10.621 6.117 15.93 9.176l31.552 18.178c7.607 4.38 15.214 8.762 22.819 13.146.392.227 1.196.496 1.488.855-.138-.172-.045-.033-.054.245-.018.493 0 .99 0 1.482l.012 14.032.015 18.483c0 2.437.003 4.87.006 7.308 0 1.436-.127 2.941.003 4.371.018.197 0 .4 0 .6l.414-.43c-8.114-4.65-16.226-9.304-24.34-13.954-12.877-7.383-25.754-14.763-38.631-22.147l-8.879-5.088c-.241-.14-.583.45-.338.59l.003-.004Z"/><path fill="#151515" d="m261.063 34.653.305-47.064-4.717 2.388-.266 46.889 4.678-2.213Z"/><path fill="#55FFAD" d="m261.307 34.517.266-41.229c.012-1.944.024-3.891.039-5.835 0-.151-.123-.209-.25-.146l-4.717 2.392c-.142.073-.239.26-.242.417-.079 13.712-.154 27.42-.233 41.132l-.033 5.757c0 .154.121.205.251.145l4.678-2.213c.235-.112.356-.735-.009-.563l-2.205 1.043c-.682.324-1.697 1.08-2.452 1.161.408-.045.118.24.232-.269.079-.341.004-.792.007-1.14.018-3.383.039-6.766.057-10.15l.16-28.35.027-4.554c0-.499.248-1.72.012-2.177-.124-.242.106.293-.193.302.263-.006.722-.366.951-.48l3.029-1.536c.19-.097.761-.266.556-.418-.163-.117-.109-.07-.115.046-.018.266-.003.538-.006.804l-.154 23.662-.091 14.08c-.018 2.613-.32 5.406-.051 8.01.012.127 0 .26 0 .39 0 .399.489-.015.489-.272l-.003-.01Z"/><path fill="#151515" d="m169.221 37.31 35.922 20.593-17.981 10.383-35.9-20.68 17.959-10.296Z"/><path fill="#55FFAD" d="M169.052 37.603c10.509 6.026 21.018 12.05 31.528 18.075l4.394 2.519.166-.575c-3.724 2.153-7.45 4.303-11.174 6.455l-5.973 3.45c-.254.145-.951.414-.674.457-.22-.034-.528-.306-.718-.415l-26.014-14.984-9.153-5.273-.166.574 17.959-10.295c.224-.127.338-.758-.009-.562l-17.959 10.295c-.139.079-.381.45-.167.575l22.861 13.17 11.799 6.797c.486.28.988.747 1.516.644.528-.103 1.187-.687 1.64-.947l2.999-1.732c4.415-2.549 8.827-5.098 13.242-7.65.139-.081.38-.45.166-.574-10.509-6.026-21.019-12.049-31.528-18.075l-4.394-2.518c-.241-.14-.583.45-.338.59h-.003Z"/><path fill="#151515" d="m151.262 50.961 35.918 20.593-.018-3.268-35.9-20.68v3.355Z"/><path fill="#55FFAD" d="M151.089 51.258c10.51 6.025 21.019 12.048 31.528 18.074 1.465.84 2.93 1.678 4.394 2.519.215.124.417-.27.414-.43-.006-.777-.009-1.557-.015-2.334 0-.314.097-.831-.091-1.097-.22-.315-1.02-.587-1.338-.771-2.6-1.5-5.203-2.996-7.803-4.496l-21.429-12.345a5976.572 5976.572 0 0 0-5.318-3.063c-.215-.124-.414.27-.414.43V51.1c0 .4.489-.012.489-.272v-3.356l-.414.43 33.434 19.26c.719.413 1.631.773 2.268 1.305.29.242.148-.117.127.415-.034.934.012 1.874.018 2.808l.414-.429c-10.51-6.026-21.019-12.048-31.528-18.074-1.465-.84-2.93-1.678-4.394-2.519-.242-.139-.583.45-.339.59h-.003Z"/><path fill="#151515" d="M205.143 61.22v-3.28l-17.981 10.346.018 3.268 17.963-10.334Z"/><path fill="#55FFAD" d="M205.387 61.084v-3.28c0-.143-.123-.218-.25-.146l-17.981 10.347a.51.51 0 0 0-.241.417c.006 1.088.012 2.177.021 3.268 0 .142.124.218.25.146l17.96-10.335c.223-.127.338-.759-.009-.562-2.603 1.496-5.203 2.993-7.807 4.493l-5.804 3.34c-1.259.723-2.718 1.352-3.874 2.23-.1.075-.275.19-.396.226-.205.063.193.305.169.063-.075-.807.299-2.131-.018-2.872-.172-.405-.211.109-.163.103.099-.012.211-.142.302-.176.525-.19 1.039-.595 1.522-.876 3.702-2.132 7.405-4.26 11.104-6.392 1.453-.838 3.171-1.57 4.506-2.591.109-.082.263-.172.389-.224.022-.009.049-.04.073-.042-.486.078-.085-.224-.245.217-.275.765 0 2.09 0 2.915 0 .4.489-.012.489-.272l.003.003Z"/><path fill="#151515" d="m168.058 50.236 14.055 8.057-.006-9.13-14.049-8.092v9.165Z"/><path fill="#55FFAD" d="m167.889 50.529 14.055 8.057c.214.125.414-.269.414-.429 0-3.041-.006-6.086-.009-9.128 0-.057-.021-.127-.076-.157l-14.045-8.09c-.215-.125-.414.268-.414.428v9.165c0 .399.489-.012.489-.272v-9.165l-.414.43c4.092 2.358 8.184 4.713 12.273 7.072.459.263 1.411.583 1.749 1.007-.13-.167-.046.02-.049.28-.012.533 0 1.065 0 1.597 0 2.367.003 4.738.006 7.105l.414-.429-14.054-8.058c-.242-.139-.583.45-.339.59v-.003Z"/><path fill="#151515" d="m188.292 54.668.051-9.207-6.185 3.659-.045 9.173 6.179-3.625Z"/><path fill="#55FFAD" d="M188.536 54.532c.019-3.069.034-6.138.052-9.206 0-.143-.124-.218-.251-.146l-4.107 2.431c-.698.415-2.081.862-2.319 1.696-.142.496-.006 1.219-.009 1.733l-.015 3.102c-.006 1.43-.016 2.857-.022 4.287 0 .142.124.218.251.145 2.06-1.209 4.119-2.415 6.179-3.625.22-.13.335-.762-.009-.562-.858.505-1.719 1.007-2.576 1.512l-1.767 1.037c-.429.25-1.244.532-1.567.919-.248.296-.033.32-.018.106.033-.445.003-.904.006-1.352l.021-4.51c.003-.869.266-2.193.015-3.033.079.26-.486.374.217.063.559-.248 1.094-.647 1.622-.958 1.187-.705 2.552-1.322 3.648-2.16.112-.084.251-.147.369-.217.172-.103-.163-.175-.16-.145.033.384-.003.79-.006 1.17l-.046 7.985c0 .4.489-.015.489-.272h.003Z"/><path fill="#151515" d="m144.615-22.383 71.85 41.192-4.717 2.389-71.811-41.368 4.678-2.213Z"/><path fill="#55FFAD" d="M144.446-22.087c8.114 4.65 16.226 9.304 24.34 13.954l38.631 22.147 8.878 5.089.167-.575c-1.42.72-2.93 1.355-4.292 2.174-.398.242-.154.275-.607-.003-1.232-.762-2.515-1.448-3.769-2.17L191.496 9.14l-41.509-23.91c-3.295-1.896-6.586-3.794-9.881-5.69l-.166.575 4.678-2.214c.235-.112.356-.734-.009-.562l-4.678 2.213c-.148.07-.372.457-.166.575l27.351 15.755c13.128 7.562 26.252 15.124 39.38 22.685 1.54.89 3.062 1.845 4.635 2.67.33.173.357.233.692.206.746-.06 1.896-.962 2.546-1.291.697-.354 1.398-.708 2.096-1.065.145-.072.374-.453.166-.574-8.115-4.65-16.226-9.303-24.341-13.953-12.877-7.384-25.754-14.764-38.631-22.148l-8.878-5.088c-.242-.14-.583.45-.338.59h.003Z"/><path fill="#151515" d="m139.937 26.674 71.853 41.192-.043-46.668-71.81-41.368v46.843Z"/><path fill="#55FFAD" d="M139.768 26.97c8.114 4.65 16.226 9.303 24.34 13.953 12.877 7.384 25.754 14.764 38.631 22.147l8.879 5.089c.214.124.413-.27.413-.43-.012-13.63-.024-27.262-.033-40.892 0-1.926-.003-3.85-.006-5.775 0-.058-.021-.127-.075-.157a337150.289 337150.289 0 0 1-62.938-36.255l-8.873-5.11c-.214-.124-.414.27-.414.43v46.843c0 .399.49-.012.49-.272v-46.844l-.414.43c5.309 3.06 10.621 6.116 15.93 9.176 10.518 6.06 21.037 12.118 31.552 18.177a57268.86 57268.86 0 0 1 22.818 13.146c.393.227 1.196.496 1.489.856-.139-.172-.045-.033-.054.245-.018.493 0 .989 0 1.482.003 4.677.009 9.354.012 14.032l.015 18.482.006 7.308c0 1.436-.127 2.942.003 4.372.018.197 0 .4 0 .599l.414-.43c-8.115-4.65-16.226-9.303-24.341-13.953l-38.63-22.147-8.879-5.089c-.242-.139-.583.45-.338.59l.003-.003Z"/><path fill="#151515" d="m216.16 65.873.305-47.064-4.718 2.389-.262 46.888 4.675-2.213Z"/><path fill="#55FFAD" d="m216.404 65.737.266-41.228c.012-1.944.024-3.892.039-5.836 0-.15-.124-.208-.25-.145l-4.718 2.392c-.141.072-.238.26-.241.417-.079 13.712-.154 27.42-.233 41.132l-.033 5.756c0 .155.121.206.251.146l4.678-2.214c.235-.111.356-.734-.009-.562l-2.205 1.043c-.682.324-1.697 1.08-2.452 1.161.408-.045.118.24.232-.269.079-.341.003-.792.006-1.14.019-3.383.04-6.766.058-10.15l.16-28.351.027-4.553c0-.5.248-1.72.012-2.177-.124-.242.106.293-.193.302.263-.006.722-.366.951-.48l3.029-1.537c.19-.096.761-.266.556-.417-.163-.118-.109-.07-.115.045-.018.267-.003.539-.006.805l-.154 23.662-.091 14.08c-.018 2.612-.32 5.406-.051 8.01.012.126 0 .26 0 .39 0 .398.489-.016.489-.273l-.003-.009ZM145.895 22.28c10.371 5.993 20.741 11.989 31.111 17.981l4.425 2.558c.214.124.413-.27.413-.43l-.018-31.937c0-.864.193-1.266-.489-1.732-1.498-1.022-3.18-1.847-4.747-2.758-5.916-3.434-11.835-6.869-17.751-10.307l-12.603-7.317c-.214-.123-.413.27-.413.43V22.123c0 .4.489-.012.489-.272v-33.355l-.414.429c9.368 5.44 18.739 10.879 28.107 16.318l6.051 3.513c.375.218.961.427 1.269.738.172.175-.045-.212.015-.048.048.13.006.387 0 .523-.26 5.524.006 11.126.009 16.656l.009 16.034.414-.43c-10.371-5.992-20.741-11.988-31.111-17.98l-4.425-2.558c-.241-.14-.582.45-.338.59h-.003ZM185.058 32.941l14.039 7.925c.218.12.414-.266.414-.43l-.009-17.844c0-.058-.021-.127-.076-.157-4.675-2.658-9.352-5.313-14.027-7.97-.218-.124-.414.266-.414.429V32.78c0 .4.489-.012.489-.272V14.622l-.413.43c4.255 2.415 8.51 4.834 12.762 7.25.323.184.649.362.969.55.224.13.293.208.221.051.214.472 0 1.542 0 2.05 0 3.02.003 6.041.006 9.065 0 2.228 0 4.46.003 6.688l.413-.43-14.039-7.924c-.242-.136-.583.453-.338.59Z"/><path fill="#151515" d="m130.623 48.023-38.938 22.3.018-3.044 38.92-22.383v3.127Z"/><path fill="#151515" d="M66.607 55.8v-3.055L91.703 67.28l-.018 3.045-25.078-14.525ZM105.102 30.332 66.607 52.709l25.096 14.57 38.477-22.458-25.078-14.489Z"/><path fill="#55FFAD" d="M105.096 30.05C93.866 36.58 82.631 43.11 71.4 49.638c-1.6.928-3.198 1.86-4.799 2.788-.139.081-.38.45-.166.574l21.97 12.756 3.129 1.818c.051.03.127.015.175-.016 11.228-6.552 22.453-13.107 33.681-19.658 1.598-.935 3.198-1.866 4.796-2.8.139-.082.38-.45.166-.575l-21.916-12.66-3.165-1.828c-.241-.14-.583.45-.338.59l21.916 12.659 3.165 1.829.166-.575c-9.108 5.319-18.22 10.634-27.328 15.953l-7.296 4.26c-1.111.65-2.461 1.802-3.708 2.164-.23.067-.06.052.015.064-.109-.015-.314-.17-.399-.23-.676-.487-1.48-.859-2.198-1.276-2.625-1.524-5.246-3.048-7.87-4.568-4.871-2.83-9.745-5.657-14.617-8.487l-.166.574 33.697-19.586c1.6-.928 3.198-1.86 4.798-2.788.224-.13.335-.762-.009-.562l-.003-.006Z"/><path fill="#55FFAD" d="m106.965 48.137-8.576 4.917c-.139.081-.38.45-.166.574l6.435 3.737c.052.03.127.015.175-.015l8.574-4.937c.139-.082.38-.45.166-.575-2.144-1.24-4.288-2.476-6.432-3.716-.242-.139-.583.45-.339.59 2.145 1.24 4.289 2.476 6.433 3.716l.166-.575c-2.691 1.551-5.527 2.963-8.118 4.675-.492.326-.223.25-.546.096-.704-.338-1.374-.798-2.051-1.19-1.374-.799-2.748-1.594-4.119-2.392l-.166.574c2.86-1.639 5.72-3.277 8.577-4.916.223-.127.338-.76-.009-.563h-.004ZM106.407 34.133C96.87 39.66 87.33 45.183 77.793 50.71c-1.359.786-2.718 1.575-4.077 2.36-.139.083-.38.451-.166.575 3.072 1.784 6.143 3.565 9.211 5.349.051.03.127.015.175-.015l28.608-16.605c1.359-.79 2.718-1.579 4.074-2.365.139-.081.38-.45.166-.574-3.069-1.772-6.137-3.547-9.205-5.319-.242-.139-.583.451-.338.59 3.068 1.772 6.136 3.547 9.204 5.318l.167-.574-16.341 9.485L88.133 55.4l-3.744 2.174c-.354.205-1.048.82-1.459.846.35-.024-.142-.178-.269-.269-.29-.208-.64-.372-.951-.553l-3.083-1.79c-1.58-.916-3.16-1.832-4.736-2.748l-.166.574c9.537-5.527 19.077-11.05 28.614-16.578l4.077-2.361c.223-.13.335-.762-.009-.562Z"/><path fill="#151515" d="M95.807 3.81 57.717 25.8l2.609 1.324 38.069-22.09-2.588-1.224Z"/><path fill="#151515" d="M63.748 51.714 57.717 25.8l2.609 1.324 6.01 25.815-2.588-1.225Z"/><path fill="#151515" d="M105.111 30.332 66.439 52.94l-6.113-25.815L98.978 4.421l6.133 25.911Z"/><path fill="#55FFAD" d="m105.105 30.05-26.1 15.257L67 52.325c-.145.085-.29.178-.44.257-.249.127.06.057.105.124-.242-.372-.272-1.146-.372-1.57-.619-2.608-1.235-5.218-1.854-7.827-1.292-5.464-2.588-10.927-3.88-16.387l-.233.483c8.737-5.13 17.473-10.262 26.207-15.392l7.486-4.397c1.459-.858 3.087-1.62 4.458-2.618.111-.082.262-.175.39-.23.247-.106-.119-.102-.122-.106.245.4.278 1.17.384 1.618.628 2.658 1.259 5.315 1.887 7.97 1.284 5.427 2.57 10.854 3.854 16.285.078.33.531-.158.471-.405L99.978 7.477l-.77-3.259c-.028-.115-.152-.13-.242-.079-11.292 6.631-22.583 13.264-33.871 19.895l-4.778 2.806c-.154.09-.275.302-.233.484 1.78 7.507 3.555 15.014 5.334 22.522l.779 3.292c.027.115.15.13.241.079l33.893-19.81 4.78-2.794c.221-.13.336-.762-.009-.562h.003Z"/><path fill="#151515" d="m107.473 85.66 27.62 15.821-.012-2.159-27.608-15.88v2.217Z"/><path fill="#151515" d="M152.886 91.177v-2.168l-17.805 10.313.012 2.159 17.793-10.304ZM125.577 73.112l27.309 15.873-17.805 10.337-27.294-15.934 17.79-10.276Z"/><path fill="#55FFAD" d="m125.408 73.405 23.842 13.86c1.157.67 2.311 1.342 3.467 2.013l.166-.574c-2.881 1.672-5.762 3.344-8.643 5.019l-6.03 3.501-2.172 1.26c-.235.137-.664.518-.939.548.293-.033-.087-.12-.263-.248-.404-.287-.872-.508-1.298-.759l-4.711-2.748c-4.228-2.467-8.456-4.938-12.684-7.405-2.727-1.59-5.454-3.183-8.181-4.774l-.166.575c5.931-3.426 11.859-6.852 17.79-10.28.224-.13.336-.762-.009-.563a52427.29 52427.29 0 0 0-17.79 10.28c-.139.082-.381.45-.166.575l23.83 13.908 3.464 2.023c.051.03.127.015.175-.016l17.805-10.337c.139-.082.381-.45.167-.574l-23.843-13.86-3.467-2.014c-.241-.139-.582.448-.338.59h-.006Z"/><path fill="#55FFAD" d="m143.996 87.162 4.261 2.415.166-.574-9.495 5.512-2.446 1.42c-.235.137-.746.581-1.027.596.345-.02-.326-.296-.449-.365l-1.381-.798-2.252-1.304-.167.575c4.322-2.498 8.643-4.995 12.965-7.49.223-.13.335-.761-.009-.562-4.322 2.498-8.643 4.995-12.965 7.49-.139.081-.38.45-.166.574 1.417.82 2.833 1.639 4.252 2.458.052.03.127.015.175-.015l12.974-7.532c.139-.078.381-.453.166-.574l-4.261-2.416c-.242-.136-.583.45-.338.59h-.003Z"/><path fill="#151515" d="M121.262 78.617c-4.346-.354-10.111-1.11-12.992-4.859-1.253-1.63-1.733-3.975-.121-5.505 2.501-2.37 5.98-3.973 9.036-5.467 3.672-1.796 7.519-3.495 11.509-4.447 1.147-.276 2.618-.672 3.793-.318 1.175.354.673 1.194-.218 1.757-1.205.759-2.588 1.224-3.965 1.542-2.355.544-6.121 1.046-6.064-2.495.027-1.678 1.543-2.627 2.896-3.28 3.244-1.572 6.868-2.21 10.005-4.033 2.854-1.66 5.246-4.639 4.702-8.146-.857-5.53-8.782-7.416-13.212-8.64-3.436-.953-6.985-1.352-10.542-1.02-1.489.14-3.739.236-5.001 1.188-.236.179-.221.741.133.475.51-.384 1.422-.508 2.023-.64 1.428-.312 2.893-.463 4.355-.509 3.974-.118 7.788.738 11.551 1.941 4.817 1.542 13.1 5.092 9.392 11.592-2.159 3.786-7.218 4.871-10.999 6.244-2.41.874-5.91 2.177-5.792 5.3.202 5.315 8.368 2.603 10.887.801.818-.586 1.797-1.79.58-2.515-.93-.557-2.386-.26-3.377-.079-4.083.747-8.057 2.525-11.783 4.294-3.401 1.614-7.182 3.356-9.987 5.926-1.67 1.53-1.842 3.794-.752 5.753 2.503 4.502 9.162 5.391 13.704 5.763.263.021.532-.599.233-.623h.006ZM136.078 74.173l37.585 21.2-.009-1.148-37.576-21.25v1.198ZM188.325 86.887V83.53l-14.662 10.69.012 1.15 14.65-8.484Z"/><path fill="#55FFAD" d="m150.724 62.484 37.145 21.246-14.209 10.495-37.135-21.295 14.199-10.446Z"/><path fill="#151515" d="m150.555 62.78 32.518 18.598c1.544.883 3.087 1.766 4.627 2.645l.103-.532-10.492 7.746-2.621 1.939c-.25.184-.537.356-.767.565-.281.26-.398.118-.097.184-.649-.145-1.428-.82-1.999-1.146l-26.644-15.277c-2.83-1.624-5.66-3.245-8.486-4.868l-.103.532c4.732-3.483 9.467-6.963 14.2-10.446.238-.176.223-.738-.133-.475-4.732 3.483-9.468 6.963-14.2 10.446-.118.088-.287.427-.103.532l32.51 18.64c1.543.883 3.083 1.769 4.626 2.652.085.048.172-.01.236-.058l14.212-10.494c.117-.088.289-.426.102-.532l-32.518-18.598c-1.543-.883-3.087-1.766-4.627-2.645-.241-.14-.583.45-.338.59l-.006.002ZM-23.199-7.55l37.59 21.201-.013-1.149-37.577-21.249v1.197ZM29.049 5.164V1.808L14.39 12.5l.01 1.15 14.649-8.485Z"/><path fill="#55FFAD" d="M-8.552-19.238 28.593 2.008l-14.21 10.494-37.135-21.294 14.2-10.446Z"/><path fill="#151515" d="M-8.721-18.942 23.797-.344 28.424 2.3l.102-.532-10.49 7.746-2.622 1.938c-.25.185-.538.357-.767.566-.281.26-.399.118-.097.184-.65-.145-1.428-.82-2-1.146L-14.093-4.22c-2.83-1.623-5.66-3.244-8.486-4.867l-.102.532c4.732-3.483 9.467-6.963 14.2-10.447.238-.175.223-.737-.134-.474-4.732 3.483-9.467 6.963-14.2 10.446-.117.088-.286.426-.102.532 10.835 6.214 21.674 12.427 32.51 18.64 1.543.883 3.083 1.769 4.626 2.652.085.048.172-.01.236-.058L28.665 2.241c.118-.088.29-.427.103-.532L-3.751-16.89l-4.626-2.646c-.242-.139-.583.45-.338.59l-.006.003Z"/><path fill="#55FFAD" d="m289.794 34.498 20.469 11.707-27.288 15.19-20.463-11.734 27.282-15.163Z"/><path fill="#151515" d="M289.625 34.795c6.822 3.903 13.644 7.803 20.469 11.707l.166-.575-20.789 11.571-4.895 2.724c-.435.242-.867.505-1.314.732-.374.187-.127.118-.205.097-.393-.1-.849-.487-1.196-.687l-2.313-1.327-6.375-3.655-10.492-6.017-.166.574c7.973-4.432 15.949-8.862 23.921-13.294l3.361-1.869c.227-.123.342-.756-.009-.562-7.972 4.433-15.948 8.862-23.921 13.294l-3.361 1.869c-.142.078-.38.453-.166.574 2.978 1.709 5.955 3.417 8.933 5.122 3.681 2.11 7.311 4.484 11.113 6.37.586.291.619.21 1.211-.12l4.044-2.25c4.457-2.479 8.915-4.961 13.369-7.44l9.253-5.153c.142-.078.381-.453.166-.574-6.822-3.903-13.644-7.804-20.469-11.707-.241-.14-.583.45-.338.59l.003.006Z"/><path fill="#55FFAD" d="m299.334 36.218 20.469 11.707-27.288 15.188-20.463-11.732 27.282-15.163Z"/><path fill="#151515" d="M299.165 36.512c6.822 3.903 13.644 7.803 20.469 11.707l.166-.575-20.789 11.571-4.895 2.724c-.435.242-.867.505-1.314.732-.374.188-.127.118-.205.097-.393-.1-.849-.487-1.196-.686l-2.313-1.328-6.375-3.655c-3.498-2.005-6.995-4.01-10.492-6.017l-.166.575c7.973-4.433 15.948-8.862 23.921-13.295l3.361-1.868c.227-.124.341-.756-.009-.563-7.972 4.433-15.948 8.862-23.921 13.295l-3.361 1.868c-.142.079-.38.454-.166.575 2.978 1.708 5.955 3.416 8.933 5.122 3.681 2.11 7.311 4.483 11.113 6.37.586.29.619.209 1.211-.121l4.044-2.25c4.457-2.479 8.915-4.961 13.369-7.44 3.083-1.718 6.17-3.435 9.253-5.152.142-.079.381-.454.166-.575-6.822-3.903-13.644-7.803-20.469-11.707-.241-.139-.583.45-.338.59l.003.006ZM47.715 14.48c3.367 4.801-.127 7.19-4.554 9.076-4.153 1.77-9.498 2.401-10.724-.105-1.015-2.075 1.18-5.594 4.85-8.23 3.666-2.637 9.455-2.132 10.428-.741Z"/><path fill="#55FFAD" d="M46.362 13.848c3.17 2.449.362 6.068-4.204 8.17-4.1 1.886-7.73 3.25-9.075 1.372-1.343-1.878.538-5.533 4.204-8.17 3.666-2.636 7.731-2.41 9.075-1.372Z"/><path fill="#151515" d="M46.193 14.141c3.551 2.978-1.426 6.359-4.038 7.595-1.848.874-7.29 3.885-8.93 1.285-1.833-2.9 2.884-6.863 4.956-8.097 2.072-1.233 5.753-2.346 8.015-.78.223.154.574-.426.338-.59-3.165-2.188-8.048.224-10.51 2.38-1.709 1.497-5.272 5.578-2.944 7.96 1.151 1.18 3.168.657 4.53.243 2.45-.744 5.034-1.823 7.124-3.311 2.425-1.73 4.678-4.853 1.797-7.269-.2-.169-.559.406-.338.59v-.006Z"/><path fill="#151515" d="M38.072 15.009c.067 0-.093-.003-.033 0a6.928 6.928 0 0 1 .646.051c.532.06 1.063.16 1.577.309 1.343.383 2.657 1.097 3.367 2.349.52.913.6 1.986.47 3.011-.041.342.63.26.668-.045.124-.977.06-1.993-.353-2.897a4.668 4.668 0 0 0-1.51-1.81c-1.105-.802-2.48-1.21-3.82-1.386a7.805 7.805 0 0 0-.958-.075c-.38-.006-.498.49-.054.496v-.003Z"/><path fill="#151515" d="M41.817 15.623c1.305-1.065 3.204-1.567 4.78-.862.284.127.759-.281.378-.454-1.824-.816-4.086-.23-5.596 1.001-.344.281.178.526.438.315ZM203.253 94.684c3.367 4.802-.127 7.19-4.554 9.077-4.153 1.769-9.498 2.401-10.724-.106-1.015-2.074 1.181-5.593 4.85-8.23 3.666-2.636 9.455-2.131 10.428-.74Z"/><path fill="#55FFAD" d="M201.9 94.052c3.171 2.45.362 6.069-4.204 8.17-4.101 1.887-7.731 3.25-9.075 1.373-1.344-1.878.538-5.533 4.204-8.17 3.666-2.636 7.731-2.41 9.075-1.373Z"/><path fill="#151515" d="M201.731 94.346c3.551 2.978-1.426 6.358-4.038 7.595-1.848.873-7.29 3.885-8.93 1.285-1.833-2.9 2.884-6.864 4.956-8.097 2.071-1.234 5.753-2.347 8.015-.78.223.154.573-.427.338-.59-3.165-2.189-8.048.224-10.509 2.38-1.71 1.496-5.273 5.578-2.945 7.96 1.151 1.18 3.168.657 4.53.242 2.449-.743 5.034-1.823 7.124-3.31 2.425-1.73 4.678-4.853 1.797-7.269-.2-.17-.559.405-.338.59v-.006Z"/><path fill="#151515" d="M193.426 95.105c2.12.03 4.72.88 5.771 2.857.495.934.58 2.001.45 3.035-.012.088.631.028.655-.175.121-.958.06-1.947-.35-2.833-.323-.701-.849-1.297-1.474-1.745-1.081-.777-2.416-1.164-3.723-1.339a7.575 7.575 0 0 0-.906-.079c-.145 0-.348.028-.466.124-.084.07-.105.148.04.151l.003.004Z"/><path fill="#151515" d="M197.355 95.821c1.307-1.067 3.201-1.566 4.78-.858.275.124.758-.272.378-.442-1.821-.816-4.086-.227-5.596 1.004-.344.281.181.508.435.3l.003-.004ZM295.064 48.062c-1.365-.14-3.709.018-5.058.287-.426.088-4.929-.248-.26-5.095.235-.29 3.992-3.661 4.149-3.721.257-1.754.761-3.59.958-4.487 2.331-8.587 9.615-13.21 18.158-9.727 6.52 2.48 10.836 9.645 10.44 16.545-.525 2.034-5.922 4.958-9.866 6.168a3.91 3.91 0 0 1-.356.29c-2.286 1.85-4.932 4.46-7.997 4.245-4.702-.33-6.333-3.98-10.168-4.508v.003Z"/><path fill="#55FFAD" d="M293.962 39.768c3.053-2.322 7.667-1.699 10.865-.148 2.274 1.104 3.814 2.74 5.424 4.638 1.048 1.234 2.087 2.97 3.47 3.861.229.148.577-.435.338-.59-1.682-1.082-2.932-3.289-4.24-4.77-1.836-2.087-3.808-3.586-6.496-4.478-2.995-.995-6.867-.986-9.497 1.016-.236.178-.221.743.133.474l.003-.003ZM299.401 27.535c3.488-1.862 8.25-2.216 11.759-.154 5.871 3.447 7.592 11.731 8.453 17.881.045.324.507-.157.471-.405-.806-5.775-2.289-12.533-6.756-16.684-1.504-1.397-3.119-2.029-5.04-2.506-2.987-.741-6.191-.136-8.893 1.309-.23.12-.345.75.009.562l-.003-.003Z"/><path fill="#55FFAD" d="M313.18 25.026c-1.914-.705-3.983-.106-5.233 1.49-.215.272-.03.71.251.354 1.096-1.403 2.977-1.866 4.641-1.255.269.1.586-.499.338-.59h.003Z"/><path fill="#55FFAD" d="M309.931 26.51c0 .55-.761.995-1.7.995s-1.7-.444-1.7-.995c0-.55.761-1.354 1.7-1.354s1.7.804 1.7 1.354Z"/><path fill="#151515" d="M242.919 80.208c2.818 1.097 3.373-7.468-.374-6.724 0 0 .217 2.648.226 3.325 0 .236.136 3.16.148 3.396v.003Zm3.941-5.494c.577 2.79.091 6.06-2.084 8.06-.48.4-1.159.874-1.806.76-.045.166-.12.338-.202.498-1.93 3.015-6.574 4.025-9.948 3.859-3.346-.33-7.326-1.05-9.416-3.95-.552-1.188-.157-2.596-.235-3.87.229-3.21.009-6.572.861-9.674.009-.004.093-.125.123-.185 1.299-2.035 3.902-2.742 6.146-3.15 4.086-.904 8.945.365 10.956 4.308 2.337-1.914 5.074 1.095 5.605 3.347v-.003Z"/><path fill="#55FFAD" d="M232.325 73.487c3.268 0 5.916-.972 5.916-2.171 0-1.2-2.648-2.171-5.916-2.171-3.267 0-5.916.972-5.916 2.17 0 1.2 2.649 2.172 5.916 2.172ZM225.965 82.612v-8.297c0-.4-.489.012-.489.272v8.297c0 .399.489-.012.489-.272Z"/><path fill="#151515" d="M126.272 1.089c-.936 3.186-5.723 3.852-8.528 3.836-2.449-.015-7.296-.816-7.71-3.912-.139-1.034-.03-2.162-.045-3.205-.031-2.023-.058-4.045-.088-6.071-.021-1.548-.121-3.117-.063-4.662.105-2.77 3.581-3.55 5.843-3.834 2.815-.354 6.236-.145 8.734 1.321 1.957 1.15 2.083 2.715 2.114 4.726.036 2.446-.025 4.892-.094 7.335-.042 1.427.151 3.147-.187 4.547-.103.433.407.157.477-.12.347-1.449.157-3.22.199-4.7.073-2.566.142-5.136.088-7.703-.042-2.014-.36-3.559-2.259-4.671-2.691-1.579-6.375-1.745-9.383-1.285-2.208.335-5.56 1.29-5.994 3.915-.221 1.318 0 2.815.015 4.142.033 2.443.069 4.89.105 7.332.018 1.252-.25 2.97.302 4.155 1.399 3.01 6.285 3.492 9.117 3.25 2.833-.242 6.856-1.194 7.786-4.36.127-.432-.329-.381-.432-.04l.003.004Z"/><path fill="#151515" d="M111.659-6.963v6.346c0 1.198.015 1.96 1.035 2.788 2.259 1.838 6.548 1.82 9.069.605 1.012-.49 2.217-1.41 2.404-2.591.344-2.16.085-4.572.124-6.764.006-.4-.486.015-.489.272-.04 2.168.145 4.469-.121 6.619-.048.396.1-.055-.076.302-.184.38-.522.707-.842.97-1.709 1.406-4.258 1.476-6.345 1.216-1.969-.245-4.27-1.064-4.27-3.184v-6.854c0-.4-.489.012-.489.272v.003ZM126.069 239.495a8.274 8.274 0 0 0-.878-1.328c-.203-.251-.42-.502-.677-.701-.099-.091-.362-.275-.622-.469-3.337-2.524-6.716-5.01-10.062-7.522-3.654-2.742-7.29-5.506-10.947-8.242a235.468 235.468 0 0 0-3.29-2.428c-.075-.058-.156-.115-.232-.169.07-.031.14-.058.206-.088.546-.233 1.09-.475 1.646-.696 5.127-2.068 9.98-4.752 14.918-7.201.229-.07.462.096.688.226.94 1.563 2.564 2.888 4.376 3.099 2.51.272 4.08-2.367 3.673-4.629-.719-2.5-2.585-5.04-5.068-5.98-.646-.296-1.854.181-2.534.865-.096-.061-25.155 3.969-25.155 3.969-.315.115 0-38.059 0-38.059l-12.572.223v38.45c-.052-.015-1.196-.647-1.248-.665a2.943 2.943 0 0 1-.41-.181 1.045 1.045 0 0 1-.206-.133c-.111-.058-.223-.109-.335-.161-.335-.163-.673-.32-1.008-.474l-.046-.024-.02-.01a.727.727 0 0 0-.086-.039l-.232-.103h.006c-.033-.012-.063-.033-.097-.045-.8-.366-1.621-.747-2.446-1.125-.009-.006-.02-.012-.039-.021l-.06-.027c-.227-.103-.465-.215-.704-.321l-.145-.069c-.103-.046-.232-.109-.368-.163a414.004 414.004 0 0 0-4.364-1.975c-1.65-.735-3.304-1.463-4.992-2.104-.73-.278-1.47-.532-2.205-.81-.401-.152-.797-.315-1.196-.478-.184-.076-.368-.148-.55-.221-.096-.039-.204-.097-.307-.106-.012 0-.015.012-.018.034 0 .042.039.099.081.148-.036-.012-.07-.012-.093 0-.39-.191-.843-.043-1.233.063-.072.012-.15.049-.15.133a2.49 2.49 0 0 0-.541.336s-.006 0-.006.006c-.22.112-.423.227-.607.329-5.702 3.142.018 10.026 4.512 10.819 1.286.287 2.775.278 3.847-.587 1.16-.931 1.887-2.812.852-4.076.981.865 1.972 1.715 2.968 2.558 1.734 1.461 3.473 2.918 5.2 4.387.296.251.592.508.894.759.145.124.293.248.441.372-.465.227-.93.463-1.386.705l-.075.039c.23.245.57.493.74.592.045.022.102.055.157.055.507-.23 1.002-.514 1.516-.735.897-.468 1.917-.704 2.868-1.061-.95.357-1.971.596-2.871 1.064-.51.221-1.01.505-1.516.735-.055 0-.112-.033-.158-.054a4.017 4.017 0 0 1-.74-.593c-1.476.777-2.932 1.602-4.381 2.422-1.453.819-2.893 1.66-4.337 2.5-1.489.871-2.977 1.745-4.475 2.609-1.49.85-2.981 1.694-4.479 2.528-2.947 1.645-5.883 3.305-8.83 4.947-1.398.777-2.797 1.557-4.2 2.331a113.944 113.944 0 0 1-2.465 1.339c-.085.045-.166.1-.257.139-.093.012 0 .194.021.227.03.057.058.115.097.169-.012.009-.021.012-.036.021-.064.046-.206.118-.206.215 0 0 .006.006.006.009-4.388 3.002 1.25 9.672 5.445 10.301 3.135.632 7.686-1.106 7.462-4.853-.55-2.63-2.557-5.523-5.148-6.576a55.26 55.26 0 0 0 1.99-.58 219.097 219.097 0 0 0 5.03-1.66 2320.96 2320.96 0 0 0 10.042-3.426c1.637-.565 3.274-1.13 4.904-1.708 1.595-.562 3.18-1.146 4.775-1.699 1.492-.517 2.999-1.022 4.482-1.563.31-.115.625-.227.936-.345.755 1.599 2.47 2.555 4.194 2.854 2.643.614 5.427.033 7.873-1.043l.142-.063c.06.033.121.069.184.105l.14.082c.268.16.543.314.815.478 1.262.731 2.521 1.484 3.784 2.222 3.152 1.835 6.32 3.64 9.47 5.479 2.966 1.735 5.961 3.431 9.005 5.025.034.015.061.033.097.051l-.217.194c-2.773 3.174.86 8.175 4.04 9.527.369.118.755.172 1.139.172 1.156 0 2.322-.493 3.15-1.282 1.229-1.264 1.12-3.063 1.011-4.689.399-.675 1.444-.823 1.637-1.606.018-.103-.012-.082-.051-.139.027.018.051.033.075.054.076.055.169.109.242.109.063 0 .109-.045.102-.178-.021-.263-.181-.541-.302-.774v-.018Z"/><path fill="#55FFAD" d="M79.294 192.011v30.909c0 .399.49-.012.49-.272v-30.91c0-.399-.49.012-.49.273Z"/><path fill="#55FFAD" d="M79.545 211.721c-1.707.819-3.413 1.636-5.116 2.455-.236.112-.353.735.01.562 1.705-.819 3.412-1.635 5.115-2.455.235-.112.353-.734-.01-.562ZM99.739 218.249c-1.323-.935-2.812-1.739-4.352-2.241-1.057-.344-3.056-.916-3.775.284-.718 1.201-.567 3.018-.57 4.303-.004 1.285-.164 3.081.329 4.336.127.326.564-.167.47-.406-.37-.949-.277-2.276-.301-3.268-.03-1.297-.203-2.984.253-4.224.894-2.434 6.23.832 7.608 1.805.22.157.573-.426.338-.589Z"/><path fill="#55FFAD" d="M91.866 192.924v23.105c0 .399.49-.012.49-.272v-23.106c0-.399-.49.013-.49.273Z"/><path fill="#151515" d="M40.343 108.916c-4.364 17.793 10.528 71.246 10.558 71.539l3.464-5.176s-12.72-71.682-14.022-66.363Z"/><path fill="#151515" d="M40.105 108.976c-1.06 4.423-.915 9.137-.631 13.642.377 6.011 1.223 11.988 2.222 17.923 1.879 11.127 4.367 22.154 7.14 33.093.588 2.316 1.422 4.668 1.83 7.026.045.269.35-.009.413-.099l2.467-3.686c.366-.547.997-1.173 1.051-1.838.076-.907-.377-2.111-.537-2.997-.973-5.409-1.96-10.815-2.963-16.218-2.552-13.736-4.992-27.55-8.28-41.131-.444-1.827-.83-3.753-1.559-5.491-.28-.674-.857-1.334-1.15-.221-.112.429.404.154.477-.121.042-.16-.136.127-.151.1.057.097.166.178.2.296.135.475.377.941.528 1.415.574 1.811 1.011 3.668 1.446 5.518 1.399 5.932 2.6 11.916 3.787 17.893 2.45 12.348 4.741 24.726 6.973 37.114.245 1.354.49 2.706.728 4.06.012.07.042.155.04.224.02-.484.063-.209-.14 0-.25.26-.45.671-.649.971-.873 1.303-1.745 2.606-2.615 3.909l.413-.1c-.32-1.85-.978-3.698-1.443-5.518a512.919 512.919 0 0 1-3.304-13.618c-2.712-11.888-5.179-23.949-6.227-36.115-.456-5.297-.83-10.927.42-16.149.103-.432-.41-.157-.477.121l-.01-.003Z"/><path fill="#151515" d="M105.253 196.374c-11.379-1.603-54.352-15.916-54.352-15.916l3.464-5.176s35.898 10.794 51.018 16.826l-.13 4.266Z"/><path fill="#151515" d="M105.371 196.062c-7.867-1.131-15.637-3.77-23.226-6.047-8.613-2.582-17.183-5.306-25.73-8.094a925.533 925.533 0 0 1-5.345-1.756l.006.396c.984-1.473 1.969-2.942 2.953-4.415.133-.199.281-.55.472-.701.16-.127-.411.091-.175.169.235.079.483.145.724.218 3.09.934 6.173 1.884 9.256 2.839 10.69 3.317 21.372 6.697 31.933 10.407 2.585.907 5.164 1.838 7.719 2.827.262.103 1.117.329 1.178.435.154.266-.037 1.155-.046 1.458l-.081 2.709c-.012.396.483-.016.489-.273.042-1.421.087-2.845.13-4.266 0-.048-.024-.139-.076-.157-15.117-6.014-30.84-10.658-46.386-15.42-1.56-.477-3.122-.955-4.683-1.424-.118-.036-.242.133-.293.209l-3.464 5.176c-.052.076-.133.351.006.396 14.212 4.732 28.502 9.343 42.955 13.276 3.766 1.025 7.58 2.099 11.449 2.655.259.036.537-.578.232-.623l.003.006Z"/><path fill="#151515" d="M105.253 196.373c33.452-10.546 46.057-30.446 46.057-30.446v-3.644s-20.276 21.346-45.927 29.824l-.13 4.266Z"/><path fill="#151515" d="M105.196 196.679c11.663-3.704 22.83-9.128 32.521-16.654 4.814-3.74 9.438-8.009 13.046-12.955.224-.306.58-.671.719-1.031.414-1.077.076-2.74.076-3.892 0-.266-.257-.157-.372-.039-2.573 2.706-5.405 5.195-8.25 7.601-6.638 5.615-13.768 10.685-21.369 14.912-5.152 2.863-10.531 5.316-16.123 7.181-.182.06-.296.257-.302.441-.043 1.421-.088 2.846-.13 4.267-.012.396.483-.016.489-.273.042-1.421.087-2.845.13-4.266l-.302.442c16.229-5.418 30.963-15.529 43.342-27.23a74.02 74.02 0 0 0 2.766-2.724l-.372-.039v1.965c0 .408-.042.852 0 1.261.022.193-.093.568.061.187-.109.272-.369.541-.538.774-1.165 1.612-2.467 3.129-3.817 4.59-5.958 6.434-13.14 11.722-20.765 16-6.565 3.683-13.529 6.594-20.698 8.871-.239.076-.438.714-.115.611h.003Z"/><path fill="#55FFAD" d="M40.796 108.916c1.755-6.522 47.138-31.115 49.107-29.104 2.923 2.987 13.572 64.79 13.572 64.79l-49.107 30.68s-14.994-61.075-13.572-66.363v-.003Z"/><path fill="#151515" d="M41.01 108.937c.324-1.113 1.363-2.032 2.175-2.794 1.386-1.3 2.902-2.461 4.433-3.58 4.334-3.168 8.918-6.001 13.539-8.731a283.7 283.7 0 0 1 14.7-8.112c3.636-1.863 7.336-3.774 11.198-5.131.571-.2 1.927-.856 2.555-.557.505.24.734 1.303.9 1.772 1.145 3.265 1.86 6.706 2.621 10.077 2.35 10.444 4.325 20.974 6.27 31.499.854 4.62 1.691 9.243 2.512 13.866.275 1.542.547 3.087.819 4.629.139.786.139 1.85.453 2.591.042.097.039.233.057.339l.233-.484-17.73 11.075-26.769 16.723-3.524 2.201c-.284.179-.616.336-.879.547-.31.251-.051.016.021.164-.272-.566-.332-1.361-.48-1.966-.36-1.484-.719-2.972-1.075-4.456-2.546-10.61-5.022-21.237-7.335-31.901-1.169-5.382-2.304-10.773-3.295-16.191-.631-3.447-1.438-7.033-1.459-10.552 0-.369 0-.747.088-1.107.109-.429-.408-.157-.477.121-.242.962-.085 2.062.009 3.03.172 1.799.45 3.589.746 5.373.894 5.406 2.005 10.772 3.143 16.13 2.438 11.477 5.095 22.909 7.825 34.32.61 2.552 1.223 5.103 1.848 7.652.028.112.154.133.242.079l16.625-10.386 26.372-16.475c2.036-1.273 4.074-2.546 6.11-3.816a.494.494 0 0 0 .232-.483c-1.069-6.205-2.183-12.4-3.316-18.592-2.002-10.933-4.043-21.866-6.432-32.723-.818-3.713-1.61-7.468-2.778-11.09-.218-.675-.444-1.818-.979-2.338-.462-.45-1.12-.242-1.697-.096-3.455.867-6.789 2.678-9.96 4.245-5.019 2.476-9.944 5.155-14.791 7.948-4.847 2.794-9.712 5.745-14.339 8.965-2.832 1.971-6.209 4.106-8.217 6.993-.254.366-.486.753-.613 1.183-.127.429.332.381.432.039h-.012Z"/><path fill="#55FFAD" d="M103.472 192.104c11.596.221 49.695-28.729 47.276-30.259-3.53-2.234-47.276-17.246-47.276-17.246l-49.107 30.68s43.637 16.723 49.107 16.825Z"/><path fill="#151515" d="M103.357 192.416c2.455.021 4.895-.886 7.136-1.805 3.177-1.3 6.224-2.918 9.202-4.623 6.954-3.985 13.607-8.533 19.988-13.379 2.549-1.935 5.068-3.925 7.46-6.053 1.253-1.116 2.853-2.353 3.684-3.852.586-1.055-.057-1.276-.982-1.699-2.126-.974-4.333-1.784-6.517-2.61-12.535-4.744-25.222-9.106-37.89-13.475-.583-.2-1.441-.705-2.042-.557-.978.239-2.171 1.358-3.014 1.884-5.046 3.15-10.09 6.304-15.136 9.454l-30.301 18.931-.583.362c-.112.07-.402.484-.166.575 13.55 5.191 27.164 10.383 41.004 14.755 2.561.81 5.436 2.001 8.154 2.086.266.009.528-.614.232-.623-2.325-.073-4.765-1.037-6.96-1.714-4.126-1.273-8.209-2.682-12.28-4.112-8.171-2.87-16.295-5.875-24.397-8.929-1.806-.68-3.612-1.363-5.415-2.053l-.166.575c8.31-5.195 16.625-10.386 24.935-15.58l16.876-10.543 5.402-3.375c.489-.305 1.015-.583 1.48-.925.202-.148.54-.23.269-.233.329.003.791.273 1.096.378a2654.743 2654.743 0 0 1 10.174 3.529c6.997 2.44 13.985 4.901 20.949 7.428 4.802 1.745 9.848 3.296 14.432 5.582.384.19.586.187.562.556-.03.466-.93 1.207-1.223 1.515-1.755 1.841-3.745 3.471-5.717 5.067-5.895 4.781-12.125 9.183-18.545 13.225-5.653 3.562-11.76 7.42-18.283 9.137-1.041.275-2.107.481-3.189.472-.265 0-.525.62-.232.623l.003.006Z"/><path fill="#55FFAD" d="M79.007 191.457c4.18 1.198 8.36 2.392 12.539 3.589.244.07.534-.535.232-.623-4.18-1.197-8.359-2.391-12.538-3.589-.245-.069-.535.536-.233.623ZM104.556 190.65v6.764c0 .399.489-.012.489-.272v-6.764c0-.399-.489.012-.489.272Z"/></g><defs><clipPath id="a"><path fill="#fff" d="M-103-136h488v384h-488z"/></clipPath></defs></svg>