<svg xmlns="http://www.w3.org/2000/svg" fill="none" viewBox="0 0 312 248"><g clip-path="url(#a)"><path fill="#151515" d="M362.112 74.874a8.323 8.323 0 0 0-.879-1.327 4.258 4.258 0 0 0-.676-.702c-.1-.09-.363-.275-.622-.468-3.337-2.525-6.717-5.01-10.063-7.523-3.654-2.742-7.29-5.506-10.947-8.242a231.49 231.49 0 0 0-3.289-2.428c-.075-.057-.157-.115-.232-.169.069-.03.139-.057.205-.088.547-.233 1.09-.474 1.646-.695 5.128-2.068 9.981-4.753 14.918-7.202.23-.07.462.097.689.227.939 1.563 2.564 2.887 4.376 3.099 2.509.272 4.08-2.368 3.672-4.63-.719-2.5-2.585-5.04-5.067-5.98-.647-.296-1.855.182-2.534.865-.097-.06-25.156 3.97-25.156 3.97-.314.115 0-38.06 0-38.06l-12.572.224v38.45c-.051-.016-1.196-.647-1.247-.666a2.926 2.926 0 0 1-.411-.181.99.99 0 0 1-.205-.133c-.112-.057-.224-.109-.335-.16a53.08 53.08 0 0 0-1.009-.475l-.045-.024-.021-.01a.821.821 0 0 0-.085-.038c-.06-.028-.145-.064-.233-.103h.006c-.033-.012-.063-.034-.096-.046-.8-.366-1.622-.747-2.446-1.124a.342.342 0 0 0-.04-.022 1.087 1.087 0 0 1-.06-.027c-.226-.103-.465-.214-.704-.32l-.145-.07c-.102-.045-.232-.109-.368-.163a417.782 417.782 0 0 0-4.364-1.974c-1.649-.735-3.304-1.464-4.992-2.105-.73-.278-1.47-.532-2.204-.81-.402-.151-.797-.315-1.196-.478-.184-.075-.369-.148-.55-.22-.096-.04-.205-.097-.308-.106-.012 0-.015.012-.018.033 0 .042.039.1.082.148-.037-.012-.07-.012-.094 0-.39-.19-.842-.042-1.232.064-.073.012-.151.048-.151.133-.184.09-.378.193-.541.335 0 0-.006 0-.006.006-.22.112-.422.227-.607.33-5.701 3.141.018 10.026 4.512 10.818 1.287.287 2.775.278 3.847-.587 1.16-.93 1.888-2.812.852-4.075a198.61 198.61 0 0 0 2.969 2.558c1.733 1.46 3.473 2.917 5.2 4.387.296.25.592.508.894.759l.441.372c-.465.226-.93.462-1.386.704-.025.012-.052.027-.076.04.23.244.571.492.74.592.045.021.103.054.157.054.507-.23 1.003-.514 1.516-.734.897-.47 1.918-.705 2.869-1.062-.951.357-1.972.596-2.872 1.065-.51.22-1.009.505-1.516.734-.054 0-.112-.033-.157-.054a4.025 4.025 0 0 1-.74-.593c-1.477.777-2.932 1.603-4.382 2.422-1.452.82-2.893 1.66-4.336 2.5-1.489.871-2.978 1.745-4.476 2.61-1.489.85-2.981 1.693-4.478 2.527-2.948 1.645-5.883 3.305-8.831 4.947-1.398.777-2.796 1.557-4.2 2.331-.635.354-1.263.701-1.9 1.04l-.565.3c-.084.045-.166.1-.256.138-.094.013 0 .194.021.227.03.058.057.115.096.17-.012.009-.021.012-.036.02-.063.046-.205.119-.205.215 0 0 .006.007.006.01-4.388 3.002 1.25 9.672 5.445 10.3 3.134.632 7.685-1.106 7.462-4.852-.55-2.63-2.558-5.524-5.149-6.576a54.659 54.659 0 0 0 1.99-.58c1.685-.53 3.355-1.09 5.031-1.66 3.349-1.135 6.699-2.277 10.042-3.426 1.636-.566 3.273-1.131 4.904-1.709 1.594-.562 3.18-1.145 4.774-1.699 1.492-.517 2.999-1.022 4.482-1.563.311-.115.625-.227.936-.345.755 1.6 2.47 2.555 4.195 2.855 2.642.613 5.427.033 7.873-1.043l.142-.064c.06.033.12.07.184.106l.139.081c.269.16.543.315.815.478 1.262.732 2.522 1.485 3.784 2.222 3.153 1.836 6.321 3.64 9.471 5.479 2.965 1.736 5.961 3.432 9.005 5.025.033.015.06.033.097.051-.082.073-.154.14-.218.194-2.772 3.175.861 8.176 4.041 9.527.368.118.755.172 1.138.172 1.157 0 2.323-.493 3.15-1.282 1.229-1.263 1.12-3.062 1.012-4.69.398-.673 1.443-.821 1.637-1.605.018-.102-.013-.081-.052-.139.027.019.052.034.076.055.075.054.169.109.241.109.064 0 .109-.046.103-.179-.021-.263-.181-.54-.302-.774v-.018Z"/><path fill="#F5F2EA" d="M315.587 47.103c-1.706.82-3.412 1.636-5.115 2.455-.236.112-.354.735.009.563 1.706-.82 3.412-1.636 5.115-2.455.236-.112.354-.735-.009-.563ZM321.67 24.844c-11.558.977-53.954-16.668-53.151-19.417 2.12-7.268 41.119-29.031 47.793-29.47 6.674-.435 54.027 21.434 54.027 21.434s-43.218 26.99-48.666 27.453h-.003Z"/><path fill="#151515" d="M321.787 24.533c-2.316.178-4.681-.236-6.946-.687-3.234-.643-6.417-1.53-9.57-2.49-7.326-2.238-14.528-4.935-21.577-7.932-2.905-1.233-5.789-2.521-8.613-3.933-1.821-.913-3.726-1.838-5.357-3.078-.287-.218-.915-.608-.969-1.01-.07-.51.751-1.406 1.041-1.772 1.562-1.956 3.594-3.561 5.563-5.082 5.832-4.505 12.185-8.372 18.585-12.012 5.753-3.275 11.647-6.498 17.808-8.941 1.471-.584 3.162-1.352 4.775-1.333 1.612.018 3.364.625 4.922 1.103 5.94 1.83 11.723 4.227 17.461 6.6 10.316 4.267 20.53 8.79 30.67 13.45.194.09.39.177.583.268l.166-.574c-13.182 8.233-26.46 16.48-40.207 23.74-1.721.91-3.458 1.805-5.236 2.597-.988.442-2.069.98-3.162 1.092-.251.024-.468.647-.115.61 2.341-.235 4.811-1.826 6.852-2.869 4.065-2.08 8.042-4.335 12.001-6.615 8.23-4.74 16.356-9.654 24.444-14.628a905.731 905.731 0 0 0 5.432-3.362c.121-.076.396-.469.166-.574a890.747 890.747 0 0 0-27.885-12.312c-6.209-2.612-12.452-5.21-18.839-7.36-1.954-.658-3.956-1.342-5.997-1.671-1.453-.233-2.736.097-4.119.565-5.901 2.005-11.509 5.1-16.948 8.1-6.653 3.67-13.212 7.604-19.367 12.07-2.31 1.675-4.608 3.429-6.613 5.47-.767.782-2.622 2.482-2.468 3.752.121 1.003 1.888 1.84 2.619 2.28 2.234 1.35 4.602 2.485 6.967 3.582 6.891 3.202 13.994 5.987 21.181 8.45 6.245 2.142 12.762 4.349 19.361 5.041 1.048.109 2.105.17 3.156.088.262-.021.513-.644.232-.623h.003Z"/><path fill="#151515" d="M341.199-46.108c10.102-9.261-19.107 74.56-19.119 74.856l-13.091-.58s18.53-61.735 32.21-74.276Z"/><path fill="#F5F2EA" d="M341.266-45.87c2.624-2.373 1.648 3.65 1.482 4.726-.915 5.923-2.573 11.753-4.194 17.512-4.026 14.293-8.649 28.421-13.366 42.499-.798 2.38-1.601 4.759-2.407 7.135-.302.895-.788 1.869-.939 2.81l.356-.373-13.091-.58.099.332c2.153-7.171 4.527-14.283 6.988-21.355 4.503-12.943 9.296-25.92 15.48-38.165 2.561-5.07 5.373-10.625 9.595-14.537.211-.197.193-.774-.133-.475-3.537 3.277-6.037 7.698-8.299 11.9-3.183 5.911-5.895 12.076-8.447 18.284-4.901 11.93-9.174 24.127-13.133 36.403a402.044 402.044 0 0 0-2.483 7.906c-.03.097-.066.323.1.333l13.091.58c.182.01.33-.215.357-.372.081-.52.583-1.73.821-2.43.725-2.141 1.45-4.279 2.168-6.423A1416.514 1416.514 0 0 0 331.91-.266c2.461-7.71 4.859-15.44 7.054-23.233 1.68-5.956 3.425-11.997 4.322-18.134.22-1.518.939-7.502-2.15-4.708-.215.193-.197.77.133.475l-.003-.003Z"/><path fill="#151515" d="M319.803 32.037c-34.068-8.342-48.754-19.553-49.952-20.859-1.202-1.306-3.135-4.293-2.244-5.119.891-.825 26.427 13.34 52.573 20.125l-.377 5.856v-.003Z"/><path fill="#151515" d="M319.918 31.726c-10.926-2.688-21.729-6.06-32.033-10.61-5.339-2.358-10.654-5-15.458-8.345-.855-.595-1.755-1.2-2.471-1.965-.715-.765-1.335-1.696-1.803-2.624-.211-.42-.966-1.712-.308-1.817.659-.106 1.843.662 2.392.898 8.166 3.498 16.157 7.365 24.407 10.672 6.435 2.58 12.965 4.944 19.608 6.93.876.263 1.755.517 2.634.765.797.224 1.923.333 2.645.723.52.281.266-.206.375.396.051.281-.043.674-.061.959-.096 1.487-.193 2.975-.287 4.462-.024.393.474-.018.49-.272.126-1.953.25-3.903.377-5.857a.16.16 0 0 0-.127-.175c-11.838-3.093-23.295-7.495-34.502-12.372-3.929-1.708-7.822-3.492-11.724-5.267-1.277-.58-2.554-1.167-3.85-1.711-.631-.266-1.41-.714-2.105-.771-2.573-.212.655 4.647 1.099 5.194.686.844 1.556 1.479 2.434 2.107 4.385 3.139 9.266 5.63 14.155 7.87 10.85 4.977 22.305 8.581 33.88 11.43.251.06.538-.548.233-.623v.003ZM186.516 218.3l176.43-101.868-9.284-5.379-176.97 101.832 9.824 5.415Z"/><path fill="#151515" d="M186.522 218.581c5.874-3.389 11.745-6.781 17.619-10.171l42.034-24.269 51.088-29.498 43.942-25.37c4.854-2.803 9.706-5.606 14.559-8.405 2.268-1.309 4.745-2.48 6.892-3.979.091-.064.196-.112.293-.17.139-.081.38-.45.166-.574l-4.385-2.54-3.15-1.823c-.423-.245-1.229-.952-1.727-1.001-.417-.039-.976.448-1.326.65l-9.609 5.53-17.507 10.075-23.078 13.279-26.324 15.148-27.249 15.679-25.962 14.94c-7.366 4.239-14.731 8.478-22.097 12.713l-16.036 9.228c-2.537 1.461-5.194 2.806-7.649 4.402-.106.07-.221.127-.329.191-.136.079-.384.456-.166.574l9.826 5.415c.245.136.583-.453.339-.589l-9.827-5.415-.166.574 5.203-2.993 14.166-8.151 20.696-11.91c8.326-4.792 16.652-9.581 24.981-14.374 9.035-5.197 18.071-10.398 27.103-15.595l26.669-15.347 24.069-13.851c6.393-3.68 12.786-7.356 19.179-11.036 4.011-2.307 8.021-4.617 12.035-6.923.851-.49 1.691-1.022 2.564-1.476.305-.16.287-.109.19-.127.574.112 1.292.75 1.797 1.04l3.171 1.838 4.255 2.468.166-.575c-5.874 3.389-11.745 6.782-17.618 10.171l-42.035 24.27-51.087 29.497-43.943 25.37a36261.23 36261.23 0 0 1-14.559 8.406c-2.265 1.309-4.745 2.479-6.892 3.979-.09.063-.196.111-.293.169-.223.13-.335.762.009.562l.003-.006Z"/><path fill="#151515" d="m186.516 219.065-10.413-6.074.387-70.275L-92.174-16.898l-.616 72.162-9.966-5.603.948-77.217 288.121 167.472.203 79.149Z"/><path fill="#151515" d="m186.688 218.769-9.331-5.443c-.263-.154-.532-.302-.791-.462-.133-.082-.354-.296-.218-.012-.033-.067.012-.212 0-.284-.081-.614.006-1.298.009-1.917l.115-20.639c.084-15.495.169-30.991.257-46.486 0-.508.093-.853-.218-1.197-.311-.345-.972-.578-1.356-.805l-6.864-4.078-27.557-16.373c-13.595-8.079-27.194-16.154-40.79-24.233L51.928 68.313 2.615 39.015-41.56 12.768C-52.703 6.15-63.844-.472-74.987-7.09l-16.308-9.687-.71-.42c-.214-.128-.413.272-.413.429l-.209 24.363c-.111 12.95-.22 25.903-.332 38.852-.024 2.981-.051 5.962-.075 8.947l.413-.43c-2.82-1.584-5.638-3.168-8.458-4.756-.402-.226-1.063-.46-1.399-.786-.208-.205.049.26-.033-.03-.096-.342.012-.862.015-1.215l.191-15.541c.196-16.052.392-32.104.591-48.156.049-4.06.1-8.118.148-12.178l-.413.43c3.868 2.249 7.737 4.495 11.605 6.745 10.25 5.959 20.5 11.915 30.749 17.875 14.598 8.483 29.197 16.97 43.792 25.454L34.9 52.295l51.571 29.978c15.369 8.931 30.734 17.866 46.102 26.797l35.016 20.354 17.582 10.22c.251.145.77.323.958.556-.185-.233-.052.169-.064.441-.033.756.003 1.524.006 2.283l.055 21.497.132 51.521c0 1.085.007 2.168.01 3.253 0 .399.489-.012.489-.272-.012-4.254-.021-8.511-.033-12.765l-.073-27.865c-.024-9.143-.048-18.283-.069-27.426-.006-2.839-.015-5.675-.022-8.514 0-.638.293-2.183-.087-2.74-.148-.214-.692-.402-.909-.529l-2.386-1.384c-2.935-1.709-5.874-3.414-8.809-5.122l-13.638-7.928c-5.855-3.404-11.711-6.809-17.567-10.21l-20.789-12.085-23.25-13.515L74.05 74.263c-8.627-5.016-17.255-10.029-25.883-15.045-8.685-5.046-17.368-10.095-26.053-15.141C13.629 39.145 5.143 34.21-3.343 29.28c-8.072-4.693-16.144-9.385-24.216-14.075-7.324-4.257-14.644-8.51-21.967-12.768-6.36-3.698-12.72-7.392-19.08-11.09-5.143-2.99-10.286-5.98-15.429-8.968-3.687-2.144-7.375-4.287-11.062-6.428l-5.816-3.38c-.242-.142-.486-.281-.728-.423-.217-.127-.414.269-.414.429-.105 8.714-.214 17.427-.32 26.141l-.51 41.607c-.04 3.156-.079 6.313-.115 9.47 0 .054.024.13.075.156 3.322 1.869 6.644 3.734 9.966 5.603.218.12.414-.266.414-.43l.208-24.363c.112-12.95.22-25.902.333-38.852l.075-8.946-.414.429 10.651 6.328C-72.336-4.723-62.98.835-53.627 6.395l40.258 23.919L33.165 57.96l47.787 28.39 43.04 25.57 33.237 19.747 17.588 10.449c.426.251.963.475 1.341.798.157.133.157.115.084-.048.112.251-.006.834-.006 1.097l-.096 17.694-.266 48.267-.018 3.205c0 .057.021.127.075.157l10.413 6.071c.239.139.583-.447.338-.589h.006Z"/><path fill="#151515" d="M-92.484 54.66 83.504-47.784l-9.199-5.213L-101.99 49.365l9.507 5.294Z"/><path fill="#151515" d="m-92.482 54.94 17.576-10.228c13.977-8.137 27.953-16.273 41.932-24.409C-15.987 10.416 1 .526 17.986-9.361l43.835-25.515 14.523-8.454c2.262-1.315 4.729-2.497 6.876-4.003.09-.063.196-.115.293-.17.139-.08.38-.453.166-.574-1.489-.843-2.98-1.687-4.47-2.533l-3.143-1.781c-.366-.209-1.136-.865-1.576-.892-.441-.027-1.006.484-1.36.69l-9.609 5.578c-5.834 3.386-11.666 6.772-17.5 10.162-7.683 4.46-15.366 8.919-23.045 13.382L-3.291-8.221-30.331 7.48c-9.015 5.234-17.172 9.972-25.758 14.955-7.341 4.263-14.682 8.526-22.024 12.786l-15.909 9.237c-2.53 1.47-5.185 2.83-7.634 4.432-.106.07-.221.127-.329.19-.136.08-.384.454-.166.575 3.167 1.766 6.338 3.532 9.506 5.294.245.136.583-.453.339-.59-3.168-1.765-6.34-3.53-9.507-5.293l-.166.574c1.73-1.004 3.46-2.01 5.194-3.014l14.052-8.16c6.873-3.992 13.75-7.983 20.623-11.974 8.301-4.82 16.603-9.639 24.905-14.461C-28.24 6.824-19.273 1.62-10.307-3.586-1.34-8.792 7.345-13.836 16.17-18.957c8.012-4.65 16.02-9.303 24.032-13.954L59.37-44.04l12.013-6.974c.87-.505 1.748-.995 2.61-1.515.229-.14.407-.13.177-.163.508.072 1.226.695 1.667.943l3.171 1.796 4.34 2.458.166-.575c-5.859 3.411-11.717 6.822-17.576 10.229L24.006-13.433-26.957 16.23-70.79 41.746l-14.522 8.453c-2.262 1.316-4.73 2.498-6.877 4.004-.09.063-.196.114-.293.169-.223.13-.335.762.01.562l-.01.006Z"/><path fill="#151515" d="m363.577 116.432-10.062-5.865.033-70.481-268.66-159.614-.617 72.162-9.965-5.606.945-77.214L363.372 37.286l.205 79.146Z"/><path fill="#151515" d="M363.746 116.139c-3.089-1.802-6.179-3.604-9.268-5.403-.19-.112-.855-.614-.719-.321-.036-.078 0-.278 0-.362V108l.009-20.938.021-46.163c0-.517.091-.846-.22-1.194s-1-.596-1.398-.832l-6.919-4.109c-9.184-5.457-18.367-10.911-27.551-16.369-13.604-8.082-27.212-16.167-40.817-24.248a342389.8 342389.8 0 0 0-48.029-28.533l-49.182-29.22-44.384-26.367-33.219-19.735-16.322-9.696c-.233-.136-.462-.275-.695-.411-.214-.127-.414.272-.414.429l-.208 24.364c-.112 12.95-.22 25.902-.332 38.852-.024 2.98-.052 5.962-.076 8.946l.414-.43c-2.82-1.584-5.638-3.168-8.459-4.755-.401-.227-1.063-.46-1.398-.786-.208-.206.048.26-.033-.03-.097-.342.012-.862.015-1.216l.19-15.54c.197-16.053.393-32.104.592-48.156.048-4.061.1-8.118.148-12.179l-.414.429 11.606 6.746 30.749 17.875c14.598 8.484 29.196 16.97 43.791 25.455l50.735 29.488 51.571 29.978c15.368 8.931 30.734 17.866 46.102 26.797l35.016 20.355 17.582 10.219c.251.145.77.323.957.556-.184-.233-.051.17-.063.442-.033.756.003 1.524.006 2.282l.054 21.498.133 51.52c0 1.085.006 2.168.009 3.253 0 .399.489-.012.489-.272-.012-4.254-.021-8.511-.033-12.765l-.072-27.865c-.024-9.143-.049-18.283-.07-27.426-.006-2.839-.015-5.675-.021-8.514 0-.638.293-2.183-.088-2.74-.147-.214-.691-.401-.909-.528l-2.385-1.385c-2.936-1.708-5.874-3.414-8.809-5.122l-13.638-7.928c-5.856-3.404-11.711-6.809-17.567-10.21-6.931-4.027-13.862-8.058-20.789-12.085l-23.25-13.515-25.075-14.576L225.225-43.4c-8.685-5.046-17.367-10.096-26.052-15.142-8.686-5.046-16.972-9.866-25.458-14.797-8.486-4.931-16.145-9.385-24.217-14.074l-21.967-12.769c-6.36-3.697-12.72-7.392-19.08-11.09-5.142-2.99-10.285-5.98-15.428-8.968-3.688-2.143-7.375-4.287-11.062-6.427l-5.817-3.381c-.241-.142-.486-.281-.727-.423-.218-.127-.414.269-.414.429-.106 8.714-.215 17.428-.32 26.141-.17 13.87-.342 27.738-.51 41.607a9965.9 9965.9 0 0 0-.115 9.47c0 .054.024.13.075.157l9.966 5.602c.217.121.414-.266.414-.429l.208-24.363c.112-12.95.22-25.903.332-38.852.024-2.982.052-5.963.076-8.947l-.414.429c3.772 2.241 7.544 4.484 11.319 6.725l29.691 17.639c14.1 8.375 28.197 16.753 42.297 25.128 16.187 9.615 32.371 19.233 48.557 28.847l48.86 29.026 43.103 25.606c10.431 6.195 20.858 12.393 31.289 18.589 3.114 1.85 6.227 3.7 9.341 5.548l2.748 1.632c.408.242.993.466 1.338.795.196.185.024-.1.045-.045.13.336 0 .974 0 1.327 0 2.456 0 4.908-.003 7.363-.003 8.635-.009 17.27-.012 25.902l-.012 26.268v7.816c-.003.463-.148 1.182-.006 1.624.166.508.697.659 1.19.946 2.983 1.738 5.964 3.477 8.948 5.219.238.139.583-.448.338-.59Z"/><path fill="#F5F2EA" d="M76.105-129.424-101.59-27.556l286.94 167.753L362.945 37.894 76.105-129.424Z"/><path fill="#151515" d="M76.099-129.705 58.487-119.61c-14.17 8.125-28.34 16.246-42.512 24.37-17.083 9.793-34.167 19.586-51.25 29.382-14.825 8.5-29.653 16.998-44.478 25.498-4.865 2.79-9.73 5.578-14.595 8.369-2.169 1.242-5.031 2.34-6.937 3.975-.085.073-.208.121-.305.176-.142.081-.381.45-.166.574l7.707 4.505 20.84 12.182 30.791 18.002 37.755 22.071C9.06 37.516 22.782 45.54 36.502 53.562c13.918 8.136 27.837 16.275 41.756 24.411 12.92 7.553 25.835 15.106 38.754 22.658 10.972 6.413 21.94 12.829 32.912 19.242l23.561 13.775c2.458 1.436 4.916 2.872 7.372 4.312 1.229.716 2.521 1.732 3.85 2.249.166.064.323.191.477.281.051.031.127.015.175-.015l17.603-10.141c14.164-8.157 28.324-16.318 42.487-24.475a1988491.95 1988491.95 0 0 0 95.677-55.115l14.59-8.403c2.168-1.248 5.028-2.352 6.933-3.994.085-.072.209-.12.305-.175.139-.082.381-.45.166-.575l-7.646-4.46c-6.979-4.069-13.958-8.142-20.937-12.211-10.277-5.996-20.554-11.988-30.83-17.984-12.536-7.31-25.069-14.622-37.604-21.936-13.729-8.009-27.46-16.015-41.189-24.024-13.928-8.124-27.853-16.248-41.78-24.37-12.926-7.537-25.848-15.078-38.773-22.615-10.926-6.374-21.852-12.748-32.775-19.118l-23.68-13.811-7.296-4.258c-1.21-.704-2.533-1.771-3.856-2.249-.166-.06-.326-.19-.48-.278-.239-.139-.58.447-.338.589 2.548 1.488 5.097 2.973 7.646 4.46 6.98 4.07 13.958 8.142 20.937 12.212 10.277 5.996 20.554 11.988 30.83 17.984 12.536 7.31 25.069 14.621 37.604 21.935 13.729 8.01 27.461 16.016 41.189 24.025 13.729 8.01 27.853 16.248 41.781 24.37 12.925 7.537 25.847 15.078 38.772 22.615l32.775 19.118 23.679 13.811c2.432 1.418 4.866 2.84 7.297 4.257 1.12.654 2.588 1.926 3.856 2.25.16.04.335.193.48.278l.166-.574c-9.706 5.59-19.412 11.184-29.121 16.774-20.964 12.076-41.931 24.155-62.896 36.23l-61.219 35.267c-6.324 3.643-12.651 7.286-18.974 10.93l-4.524 2.606c-.199.115-.583.45-.819.472-.036.003.266-.019-.057-.1-.761-.191-1.649-.965-2.316-1.355l-4.642-2.712c-5.242-3.066-10.485-6.131-15.728-9.194L112.087 96.97c-21.67-12.668-43.342-25.34-65.013-38.008a994791.67 994791.67 0 0 1-66.009-38.593C-36.87 9.885-54.805-.6-72.738-11.086l-27.445-16.046c-.407-.239-.815-.477-1.226-.716l-.166.574 17.612-10.095c14.17-8.125 28.34-16.246 42.511-24.37C-24.368-71.533-7.284-81.326 9.8-91.122c14.824-8.5 29.652-16.998 44.477-25.497 4.865-2.791 9.73-5.579 14.595-8.369 2.156-1.237 5.055-2.335 6.937-3.976.084-.073.208-.121.305-.176.223-.127.338-.759-.01-.562l-.005-.003Z"/><path fill="#F5F2EA" d="M187.905 218.847v-13.442c0-.399-.489.012-.489.272v13.443c0 .399.489-.013.489-.273ZM263.889-1.805l20.466 11.707-27.288 15.19-20.46-11.734 27.282-15.163Z"/><path fill="#151515" d="M263.72-1.509c6.822 3.904 13.644 7.804 20.469 11.707l.166-.574c-6.93 3.858-13.858 7.713-20.789 11.57l-4.895 2.725c-.435.242-.867.505-1.314.732-.374.187-.127.118-.205.096-.393-.1-.849-.486-1.196-.686l-2.313-1.327-6.375-3.656c-3.497-2.004-6.994-4.009-10.491-6.016l-.167.574c7.973-4.432 15.949-8.862 23.921-13.294l3.361-1.869c.227-.124.342-.756-.009-.562-7.972 4.432-15.948 8.862-23.92 13.294l-3.362 1.869c-.142.078-.38.453-.166.574 2.978 1.709 5.956 3.417 8.933 5.122 3.681 2.11 7.311 4.484 11.113 6.37.586.29.62.21 1.211-.12l4.044-2.25 13.369-7.44 9.253-5.153c.142-.078.381-.453.166-.574-6.822-3.904-13.644-7.804-20.469-11.707-.241-.14-.582.45-.338.59l.003.005Z"/><path fill="#F5F2EA" d="m273.429-.084 20.466 11.707-27.288 15.187-20.462-11.735 27.284-15.16Z"/><path fill="#151515" d="M273.257.209c6.822 3.903 13.644 7.804 20.469 11.707l.166-.575-20.789 11.571-4.895 2.725c-.435.241-.867.505-1.314.731-.374.188-.126.118-.205.097-.393-.1-.849-.487-1.196-.686l-2.313-1.328-6.375-3.655c-3.497-2.005-6.994-4.01-10.491-6.017l-.166.575c7.972-4.433 15.948-8.862 23.92-13.295l3.361-1.868c.227-.124.342-.756-.009-.563-7.972 4.433-15.948 8.862-23.92 13.295l-3.362 1.868c-.141.079-.38.454-.166.575l8.933 5.122c3.682 2.11 7.312 4.483 11.114 6.37.585.29.619.209 1.211-.12l4.043-2.25c4.458-2.48 8.915-4.962 13.369-7.441l9.253-5.152c.142-.079.381-.454.167-.575-6.822-3.903-13.644-7.803-20.469-11.707-.242-.139-.583.45-.339.59l.003.006ZM214.124 6.09l35.919 20.59-17.981 10.385-35.9-20.68 17.962-10.296Z"/><path fill="#F5F2EA" d="M213.952 6.383c10.509 6.026 21.018 12.049 31.528 18.074l4.394 2.519.166-.575c-3.724 2.153-7.45 4.303-11.174 6.456-1.99 1.148-3.983 2.3-5.973 3.45-.254.145-.952.414-.674.456-.22-.033-.528-.305-.718-.414l-26.014-14.985-9.153-5.273-.166.575L214.127 6.37c.223-.127.338-.76-.009-.563l-17.96 10.295c-.138.079-.38.45-.166.575l22.861 13.17 11.799 6.797c.486.281.987.747 1.516.644.528-.103 1.187-.686 1.64-.946l2.998-1.733c4.416-2.549 8.828-5.097 13.243-7.65.139-.08.38-.45.166-.574-10.509-6.026-21.019-12.048-31.528-18.074l-4.394-2.519c-.242-.139-.583.45-.338.59h-.003Z"/><path fill="#151515" d="m196.162 19.74 35.921 20.594-.021-3.269-35.9-20.68v3.356Z"/><path fill="#F5F2EA" d="m195.992 20.034 31.528 18.074c1.465.841 2.93 1.678 4.394 2.519.215.124.417-.27.414-.43-.006-.776-.009-1.556-.015-2.334 0-.314.097-.83-.091-1.097-.22-.314-1.02-.587-1.337-.771-2.601-1.5-5.204-2.996-7.804-4.496l-21.429-12.345c-1.773-1.022-3.546-2.044-5.318-3.063-.215-.124-.414.27-.414.43v3.356c0 .399.489-.012.489-.272v-3.357l-.413.43 33.433 19.26c.719.414 1.631.774 2.268 1.306.29.242.148-.118.127.414-.033.934.012 1.874.018 2.809l.414-.43c-10.51-6.025-21.019-12.048-31.528-18.074-1.465-.84-2.93-1.678-4.394-2.519-.242-.139-.583.45-.338.59h-.004Z"/><path fill="#151515" d="M250.043 30v-3.281l-17.981 10.346.021 3.269 17.96-10.335Z"/><path fill="#F5F2EA" d="M250.287 29.863v-3.28c0-.142-.124-.218-.25-.145l-17.981 10.346a.511.511 0 0 0-.242.417c.006 1.089.013 2.177.022 3.269 0 .142.123.217.25.145l17.96-10.335c.223-.126.338-.758-.009-.562a8489.736 8489.736 0 0 0-7.807 4.493l-5.804 3.341c-1.259.723-2.718 1.352-3.875 2.228a1.54 1.54 0 0 1-.395.227c-.206.064.193.306.169.064-.076-.808.299-2.132-.018-2.873-.172-.405-.212.11-.163.103.099-.012.211-.142.302-.175.525-.19 1.038-.596 1.522-.877 3.702-2.132 7.404-4.26 11.104-6.392 1.452-.837 3.171-1.569 4.506-2.59a1.89 1.89 0 0 1 .389-.225c.021-.009.049-.039.073-.042-.487.079-.085-.224-.245.218-.275.765 0 2.089 0 2.914 0 .4.489-.012.489-.272l.003.003Z"/><path fill="#151515" d="m212.961 19.015 14.055 8.055-.009-9.128-14.046-8.091v9.164Z"/><path fill="#F5F2EA" d="m212.792 19.308 14.055 8.058c.214.124.414-.27.414-.43 0-3.041-.006-6.086-.009-9.127 0-.058-.021-.127-.076-.158-4.681-2.697-9.365-5.393-14.045-8.09-.215-.124-.414.269-.414.429v9.164c0 .4.489-.012.489-.272V9.718l-.414.43c4.092 2.357 8.184 4.713 12.273 7.071.459.263 1.411.584 1.749 1.007-.13-.166-.045.021-.048.281-.013.532 0 1.064 0 1.596 0 2.368.003 4.738.006 7.106l.413-.43c-4.684-2.684-9.371-5.372-14.054-8.057-.242-.14-.583.45-.339.59v-.004Z"/><path fill="#151515" d="m233.195 23.445.051-9.204-6.185 3.658-.045 9.17 6.179-3.624Z"/><path fill="#F5F2EA" d="M233.44 23.308c.018-3.068.033-6.137.051-9.206 0-.142-.124-.218-.251-.145l-4.107 2.43c-.697.415-2.081.862-2.319 1.697-.142.496-.006 1.218-.009 1.732l-.015 3.102c-.006 1.43-.015 2.858-.021 4.288 0 .142.123.217.25.145 2.06-1.21 4.119-2.416 6.179-3.625.22-.13.335-.762-.009-.563-.858.505-1.718 1.007-2.576 1.512l-1.767 1.037c-.429.251-1.244.532-1.567.92-.248.295-.033.32-.018.105.033-.444.003-.904.006-1.351l.021-4.511c.003-.868.266-2.193.015-3.033.079.26-.486.375.217.063.559-.248 1.094-.647 1.622-.958 1.187-.704 2.552-1.321 3.648-2.159.112-.085.251-.148.369-.218.172-.102-.163-.175-.16-.145.033.384-.003.79-.006 1.17l-.046 7.986c0 .399.49-.016.49-.273h.003Z"/><path fill="#151515" d="m184.84-4.547 71.85 41.192-.04-46.668-71.81-41.367v46.843Z"/><path fill="#F5F2EA" d="M184.671-4.25c8.114 4.65 16.226 9.302 24.34 13.953 12.877 7.383 25.754 14.763 38.631 22.147l8.879 5.088c.214.124.413-.269.413-.429-.012-13.63-.024-27.263-.033-40.893 0-1.926-.003-3.849-.006-5.775 0-.057-.021-.127-.075-.157-8.109-4.671-16.217-9.343-24.329-14.014-12.871-7.414-25.742-14.827-38.609-22.24l-8.873-5.11c-.214-.124-.414.269-.414.429v46.843c0 .399.49-.012.49-.272v-46.843l-.414.429c5.309 3.06 10.621 6.117 15.93 9.176l31.552 18.178c7.607 4.38 15.214 8.762 22.818 13.146.393.227 1.196.496 1.489.855-.139-.172-.045-.033-.054.245-.018.493 0 .99 0 1.482l.012 14.032.015 18.483c0 2.437.003 4.87.006 7.308 0 1.436-.127 2.941.003 4.371.018.197 0 .4 0 .6l.414-.43c-8.115-4.65-16.226-9.304-24.341-13.954-12.877-7.383-25.753-14.763-38.63-22.147l-8.879-5.088c-.241-.14-.583.45-.338.59l.003-.004Z"/><path fill="#151515" d="m261.063 34.653.305-47.064-4.717 2.388-.266 46.889 4.678-2.213Z"/><path fill="#F5F2EA" d="m261.307 34.517.266-41.229c.012-1.944.024-3.891.039-5.835 0-.151-.123-.209-.25-.146l-4.717 2.392c-.142.073-.239.26-.242.417-.079 13.712-.154 27.42-.233 41.132l-.033 5.757c0 .154.121.205.251.145l4.678-2.213c.235-.112.356-.735-.009-.563l-2.205 1.043c-.682.324-1.697 1.08-2.452 1.161.408-.045.118.24.232-.269.079-.341.004-.792.007-1.14.018-3.383.039-6.766.057-10.15l.16-28.35.027-4.554c0-.499.248-1.72.012-2.177-.124-.242.106.293-.193.302.263-.006.722-.366.951-.48l3.029-1.536c.19-.097.761-.266.556-.418-.163-.117-.109-.07-.115.046-.018.266-.003.538-.006.804l-.154 23.662-.091 14.08c-.018 2.613-.32 5.406-.051 8.01.012.127 0 .26 0 .39 0 .399.489-.015.489-.272l-.003-.01Z"/><path fill="#151515" d="m169.222 37.31 35.922 20.593-17.981 10.383-35.901-20.68 17.96-10.296Z"/><path fill="#F5F2EA" d="m169.052 37.603 31.528 18.075c1.465.84 2.93 1.678 4.394 2.519l.166-.575c-3.723 2.153-7.45 4.303-11.173 6.455l-5.974 3.45c-.253.145-.951.414-.673.457-.221-.034-.529-.306-.719-.415l-26.013-14.984-9.154-5.273-.166.574 17.96-10.295c.223-.127.338-.758-.01-.562l-17.959 10.295c-.139.079-.38.45-.166.575l22.861 13.17c3.932 2.264 7.864 4.53 11.798 6.797.487.28.988.747 1.517.644.528-.103 1.186-.687 1.639-.947l2.999-1.732c4.415-2.549 8.827-5.098 13.242-7.65.139-.081.381-.45.167-.574-10.51-6.026-21.019-12.049-31.528-18.075l-4.394-2.518c-.242-.14-.583.45-.339.59h-.003Z"/><path fill="#151515" d="m151.262 50.961 35.919 20.594-.018-3.269-35.901-20.68v3.355Z"/><path fill="#F5F2EA" d="M151.09 51.258c10.509 6.025 21.019 12.048 31.528 18.074l4.394 2.519c.214.124.417-.27.414-.43-.006-.777-.009-1.557-.015-2.334 0-.314.096-.831-.091-1.097-.22-.315-1.021-.587-1.338-.771-2.6-1.5-5.203-2.996-7.803-4.496l-21.43-12.345a4051.375 4051.375 0 0 0-5.318-3.063c-.214-.124-.413.27-.413.43V51.1c0 .4.489-.012.489-.272v-3.356l-.414.43 33.434 19.26c.718.413 1.63.773 2.268 1.305.289.242.148-.117.126.415-.033.934.013 1.874.019 2.808l.413-.429c-10.509-6.026-21.018-12.048-31.528-18.074l-4.394-2.519c-.241-.139-.582.45-.338.59h-.003Z"/><path fill="#151515" d="M205.143 61.22v-3.28l-17.98 10.346.018 3.268 17.962-10.334Z"/><path fill="#F5F2EA" d="M205.388 61.084v-3.28c0-.143-.124-.218-.251-.146l-17.98 10.347a.511.511 0 0 0-.242.417c.006 1.088.012 2.177.021 3.268 0 .142.124.218.251.146L205.146 61.5c.224-.127.338-.759-.009-.562-2.603 1.496-5.203 2.993-7.806 4.493l-5.805 3.34c-1.259.723-2.717 1.352-3.874 2.23-.1.075-.275.19-.396.226-.205.063.194.305.169.063-.075-.807.299-2.131-.018-2.872-.172-.405-.211.109-.163.103.1-.012.212-.142.302-.176.526-.19 1.039-.595 1.522-.876 3.703-2.132 7.405-4.26 11.104-6.392 1.453-.838 3.171-1.57 4.506-2.591.109-.082.263-.172.39-.224.021-.009.048-.04.072-.042-.486.078-.084-.224-.244.217-.275.765 0 2.09 0 2.915 0 .4.489-.012.489-.272l.003.003Z"/><path fill="#151515" d="m168.059 50.236 14.054 8.057-.006-9.13-14.048-8.091v9.164Z"/><path fill="#F5F2EA" d="m167.89 50.529 14.054 8.058c.215.124.414-.27.414-.43 0-3.041-.006-6.086-.009-9.128 0-.057-.021-.127-.076-.157-4.68-2.697-9.364-5.394-14.045-8.09-.215-.125-.414.268-.414.429v9.164c0 .399.489-.012.489-.272v-9.165l-.413.43c4.092 2.358 8.184 4.713 12.272 7.072.46.263 1.411.583 1.749 1.007-.13-.167-.045.02-.048.28-.012.533 0 1.065 0 1.597 0 2.368.003 4.738.006 7.105l.413-.429-14.054-8.058c-.242-.139-.583.451-.338.59v-.003Z"/><path fill="#151515" d="m188.292 54.668.051-9.206-6.184 3.658-.046 9.173 6.179-3.625Z"/><path fill="#F5F2EA" d="M188.537 54.532c.018-3.069.033-6.138.051-9.206 0-.142-.124-.218-.251-.145l-4.107 2.43c-.697.415-2.08.862-2.319 1.697-.142.495-.006 1.218-.009 1.732l-.015 3.102c-.006 1.43-.015 2.857-.021 4.287 0 .143.124.218.25.146 2.06-1.21 4.12-2.416 6.179-3.626.221-.13.335-.761-.009-.562-.858.505-1.718 1.007-2.576 1.512l-1.767 1.037c-.428.25-1.244.532-1.567.919-.248.296-.033.32-.018.106.033-.445.003-.904.006-1.352l.021-4.51c.003-.868.266-2.193.015-3.033.079.26-.486.375.218.063.558-.248 1.093-.647 1.621-.958 1.187-.705 2.552-1.322 3.648-2.16.112-.084.251-.147.369-.217.172-.103-.163-.175-.16-.145.033.384-.003.79-.006 1.17l-.046 7.985c0 .4.49-.015.49-.272h.003Z"/><path fill="#151515" d="m144.615-22.383 71.85 41.192-4.717 2.389-71.811-41.368 4.678-2.213Z"/><path fill="#F5F2EA" d="M144.446-22.087c8.114 4.65 16.226 9.304 24.34 13.954l38.631 22.147 8.879 5.089.166-.575c-1.42.72-2.93 1.355-4.292 2.174-.398.242-.154.275-.607-.003-1.232-.762-2.515-1.448-3.768-2.17L191.496 9.14l-41.509-23.91c-3.294-1.895-6.586-3.794-9.881-5.69l-.166.575 4.678-2.214c.235-.111.356-.734-.009-.562l-4.678 2.213c-.148.07-.371.457-.166.575l27.351 15.755 39.38 22.686c1.54.888 3.062 1.844 4.635 2.67.33.172.357.232.692.205.746-.06 1.897-.962 2.546-1.291.697-.354 1.398-.708 2.096-1.064.145-.073.374-.454.166-.575-8.115-4.65-16.226-9.303-24.341-13.953-12.877-7.384-25.754-14.764-38.63-22.147l-8.879-5.09c-.242-.138-.583.451-.338.59h.003Z"/><path fill="#151515" d="m139.937 26.674 71.853 41.192-.042-46.668-71.811-41.368v46.844Z"/><path fill="#F5F2EA" d="M139.768 26.97c8.115 4.65 16.226 9.303 24.341 13.953 12.876 7.384 25.753 14.764 38.63 22.147l8.879 5.089c.214.124.414-.27.414-.43-.012-13.63-.025-27.262-.034-40.892 0-1.926-.003-3.85-.006-5.775 0-.058-.021-.127-.075-.157-8.109-4.672-16.217-9.343-24.329-14.014L148.979-15.35l-8.873-5.11c-.214-.124-.413.27-.413.43v46.843c0 .399.489-.012.489-.272v-46.844l-.414.43c5.309 3.06 10.621 6.116 15.93 9.176 10.518 6.06 21.037 12.118 31.552 18.177 7.607 4.381 15.215 8.762 22.819 13.146.392.227 1.196.496 1.488.856-.138-.172-.045-.033-.054.245-.018.493 0 .989 0 1.482.003 4.677.009 9.354.012 14.032l.015 18.482.006 7.308c0 1.436-.127 2.942.003 4.372.018.197 0 .4 0 .599l.414-.43c-8.114-4.65-16.226-9.303-24.34-13.953l-38.631-22.147-8.879-5.089c-.241-.139-.583.45-.338.59l.003-.003Z"/><path fill="#151515" d="m216.16 65.873.305-47.064-4.717 2.389-.263 46.889 4.675-2.214Z"/><path fill="#F5F2EA" d="M216.404 65.737c.088-13.742.179-27.486.266-41.228.012-1.944.024-3.892.039-5.836 0-.15-.123-.208-.25-.145l-4.717 2.392c-.142.072-.239.26-.242.417l-.232 41.132-.034 5.756c0 .155.121.206.251.146l4.678-2.214c.235-.111.356-.734-.009-.562l-2.205 1.043c-.682.324-1.697 1.08-2.452 1.161.408-.045.118.24.233-.269.078-.341.003-.792.006-1.14.018-3.383.039-6.766.057-10.15l.16-28.351.027-4.553c0-.5.248-1.72.012-2.177-.123-.242.106.293-.193.302.263-.006.722-.366.951-.48l3.029-1.537c.191-.096.761-.266.556-.417-.163-.118-.109-.07-.115.045-.018.267-.003.539-.006.805l-.154 23.662-.09 14.08c-.019 2.612-.321 5.406-.052 8.01.012.126 0 .26 0 .39 0 .398.489-.016.489-.273l-.003-.009ZM145.895 22.28c10.371 5.993 20.741 11.989 31.111 17.981l4.425 2.558c.214.124.413-.269.413-.43l-.018-31.937c0-.864.194-1.266-.489-1.732-1.498-1.022-3.18-1.847-4.747-2.757-5.916-3.435-11.835-6.87-17.751-10.308-4.201-2.44-8.402-4.876-12.602-7.316-.215-.124-.414.269-.414.429V22.123c0 .4.489-.012.489-.272v-33.355l-.414.43 28.107 16.317c2.017 1.17 4.034 2.343 6.052 3.513.374.218.96.427 1.268.738.172.175-.045-.212.015-.048.048.13.006.387 0 .523-.26 5.524.006 11.126.009 16.656l.009 16.034.414-.43-31.111-17.98c-1.474-.853-2.951-1.705-4.424-2.558-.242-.14-.583.45-.339.59h-.003ZM185.058 32.941l14.039 7.925c.218.12.414-.266.414-.43l-.009-17.844c0-.058-.021-.127-.076-.157-4.675-2.658-9.352-5.313-14.027-7.97-.218-.124-.414.266-.414.429V32.78c0 .4.489-.012.489-.272V14.622l-.413.43c4.255 2.415 8.51 4.834 12.762 7.25.323.184.649.362.969.55.224.13.293.208.221.051.214.472 0 1.542 0 2.05 0 3.02.003 6.041.006 9.065 0 2.228 0 4.46.003 6.688l.413-.43-14.039-7.924c-.242-.136-.583.453-.338.59Z"/><path fill="#151515" d="m130.624 48.023-38.939 22.3.018-3.044 38.921-22.383v3.127Z"/><path fill="#151515" d="M66.607 55.799v-3.054L91.703 67.28l-.018 3.045-25.078-14.525ZM105.102 30.332 66.607 52.709l25.096 14.57 38.477-22.458-25.078-14.489Z"/><path fill="#F5F2EA" d="M105.097 30.05C93.866 36.58 82.632 43.11 71.4 49.638c-1.6.928-3.198 1.86-4.798 2.788-.14.081-.38.45-.166.574 7.323 4.251 14.646 8.505 21.97 12.756l3.128 1.818c.052.03.127.015.175-.016 11.228-6.552 22.453-13.107 33.682-19.658 1.597-.935 3.198-1.866 4.795-2.8.139-.082.381-.45.166-.575l-21.915-12.66-3.165-1.828c-.242-.14-.583.45-.338.59l21.915 12.659 3.165 1.829.166-.575c-9.108 5.319-18.219 10.634-27.327 15.953l-7.296 4.26c-1.112.65-2.462 1.802-3.709 2.164-.23.067-.06.052.015.064-.108-.015-.314-.17-.398-.23-.677-.487-1.48-.859-2.199-1.276-2.624-1.524-5.245-3.048-7.87-4.568-4.87-2.83-9.745-5.657-14.616-8.487l-.166.574 33.696-19.586c1.601-.928 3.198-1.86 4.799-2.788.223-.13.335-.762-.009-.562l-.003-.006Z"/><path fill="#F5F2EA" d="m106.966 48.137-8.577 4.917c-.138.081-.38.45-.166.574l6.436 3.737c.051.03.127.015.175-.015l8.573-4.937c.139-.082.381-.45.167-.575-2.145-1.24-4.289-2.476-6.433-3.716-.241-.139-.583.45-.338.59 2.144 1.24 4.288 2.476 6.432 3.716l.166-.575c-2.69 1.551-5.526 2.963-8.117 4.675-.492.326-.224.25-.547.096-.703-.338-1.374-.798-2.05-1.19-1.374-.799-2.748-1.594-4.12-2.392l-.165.574c2.859-1.639 5.719-3.277 8.576-4.916.224-.127.338-.76-.009-.563h-.003ZM106.408 34.133c-9.537 5.526-19.077 11.05-28.614 16.577-1.359.786-2.718 1.576-4.077 2.362-.139.081-.38.45-.166.574 3.071 1.784 6.142 3.565 9.21 5.349.052.03.127.015.176-.015l28.608-16.605c1.358-.79 2.717-1.579 4.073-2.365.139-.081.381-.45.166-.574l-9.204-5.319c-.242-.139-.583.45-.338.59 3.068 1.772 6.136 3.547 9.204 5.318l.166-.574-16.34 9.485L88.134 55.4l-3.745 2.174c-.353.205-1.047.82-1.458.846.35-.024-.142-.178-.269-.269-.29-.208-.64-.372-.951-.553l-3.084-1.79-4.735-2.748-.166.574c9.537-5.527 19.077-11.05 28.614-16.578l4.077-2.361c.223-.13.335-.762-.009-.563Z"/><path fill="#151515" d="M95.807 3.81 57.717 25.8l2.609 1.324 38.069-22.09-2.588-1.224Z"/><path fill="#151515" d="M63.748 51.714 57.717 25.8l2.609 1.324 6.01 25.815-2.588-1.225Z"/><path fill="#151515" d="M105.111 30.332 66.439 52.94l-6.113-25.815L98.978 4.421l6.133 25.911Z"/><path fill="#F5F2EA" d="M105.106 30.05 79.004 45.308c-4 2.34-8.002 4.678-12.004 7.018-.145.085-.29.178-.44.257-.248.127.06.057.105.124-.242-.372-.272-1.146-.371-1.57-.62-2.608-1.236-5.218-1.855-7.827-1.292-5.464-2.588-10.927-3.88-16.387l-.233.483c8.737-5.13 17.473-10.262 26.207-15.392l7.486-4.397c1.46-.858 3.087-1.62 4.458-2.618.112-.082.263-.175.39-.23.247-.106-.118-.102-.121-.106.244.4.278 1.17.383 1.618.628 2.658 1.259 5.315 1.888 7.97 1.283 5.427 2.57 10.854 3.853 16.285.079.33.532-.158.471-.405L99.978 7.477l-.77-3.259c-.028-.115-.151-.13-.242-.079L65.095 24.034l-4.778 2.806c-.154.09-.275.302-.232.484 1.778 7.507 3.554 15.014 5.333 22.522l.779 3.292c.027.115.151.13.242.079l33.892-19.81 4.781-2.794c.22-.13.335-.762-.009-.562h.003Z"/><path fill="#151515" d="m107.473 85.66 27.62 15.821-.012-2.159-27.608-15.88v2.217Z"/><path fill="#151515" d="M152.886 91.177v-2.168l-17.805 10.313.012 2.159 17.793-10.304Z"/><path fill="#151515" d="m125.578 73.112 27.309 15.873-17.805 10.337-27.294-15.934 17.79-10.276Z"/><path fill="#F5F2EA" d="m125.409 73.405 23.842 13.86c1.156.67 2.31 1.342 3.467 2.013l.166-.574c-2.881 1.672-5.762 3.344-8.643 5.019l-6.031 3.501-2.171 1.26c-.236.137-.665.518-.94.548.293-.033-.087-.12-.262-.248-.405-.287-.873-.508-1.299-.759l-4.711-2.748c-4.228-2.467-8.456-4.938-12.684-7.405-2.727-1.59-5.453-3.183-8.18-4.774l-.167.575a46735.1 46735.1 0 0 0 17.791-10.28c.223-.13.335-.762-.009-.563l-17.791 10.28c-.139.082-.38.45-.166.575l23.83 13.908c1.154.674 2.311 1.348 3.464 2.023.052.03.127.015.175-.016l17.806-10.337c.139-.082.38-.45.166-.574l-23.842-13.86-3.467-2.014c-.242-.139-.583.448-.338.59h-.006Z"/><path fill="#F5F2EA" d="M143.996 87.162c1.419.804 2.839 1.608 4.261 2.416l.166-.575-9.495 5.512-2.446 1.421c-.235.136-.746.58-1.026.596.344-.022-.327-.297-.45-.366l-1.38-.798-2.253-1.303-.166.574c4.321-2.498 8.643-4.995 12.964-7.49.224-.13.335-.761-.009-.562a27835.59 27835.59 0 0 1-12.964 7.49c-.139.081-.381.45-.167.574 1.417.82 2.833 1.639 4.252 2.458.052.03.127.015.176-.015l12.973-7.531c.139-.08.381-.454.166-.575l-4.261-2.416c-.241-.136-.583.45-.338.59h-.003Z"/><path fill="#151515" d="M121.262 78.617c-4.346-.354-10.111-1.11-12.992-4.859-1.253-1.63-1.733-3.975-.12-5.505 2.5-2.37 5.979-3.973 9.035-5.467 3.672-1.796 7.52-3.495 11.509-4.447 1.148-.276 2.618-.672 3.793-.318 1.175.354.674 1.194-.217 1.757-1.205.759-2.588 1.224-3.966 1.542-2.355.544-6.121 1.046-6.064-2.495.028-1.678 1.544-2.627 2.897-3.28 3.243-1.572 6.867-2.21 10.005-4.033 2.853-1.66 5.245-4.639 4.702-8.146-.858-5.53-8.782-7.416-13.213-8.64-3.436-.953-6.985-1.352-10.542-1.02-1.489.14-3.739.236-5.001 1.188-.236.179-.221.741.133.475.51-.384 1.422-.508 2.023-.64 1.429-.312 2.893-.463 4.355-.509 3.974-.118 7.788.738 11.551 1.941 4.817 1.542 13.1 5.092 9.392 11.592-2.159 3.786-7.218 4.871-10.999 6.244-2.409.874-5.91 2.177-5.792 5.3.203 5.315 8.368 2.603 10.887.801.818-.586 1.797-1.79.58-2.515-.93-.557-2.386-.26-3.376-.079-4.083.747-8.058 2.525-11.784 4.294-3.401 1.614-7.181 3.356-9.987 5.926-1.67 1.53-1.842 3.794-.752 5.753 2.504 4.502 9.163 5.391 13.704 5.763.263.021.532-.599.233-.623h.006ZM136.078 74.173l37.585 21.2-.009-1.148-37.576-21.25v1.198ZM188.325 86.887V83.53l-14.661 10.69.012 1.15 14.649-8.484Z"/><path fill="#F5F2EA" d="m150.724 62.484 37.145 21.246-14.209 10.495-37.136-21.295 14.2-10.446Z"/><path fill="#151515" d="m150.555 62.78 32.518 18.598c1.544.883 3.087 1.766 4.627 2.645l.103-.532-10.492 7.746-2.621 1.939c-.25.184-.537.356-.767.565-.281.26-.398.118-.097.184-.649-.145-1.428-.82-1.999-1.146l-26.644-15.277c-2.83-1.624-5.66-3.245-8.486-4.868l-.103.532c4.732-3.483 9.467-6.963 14.2-10.446.238-.176.223-.738-.133-.475-4.732 3.483-9.468 6.963-14.2 10.446-.118.088-.287.427-.103.532l32.51 18.64c1.543.883 3.083 1.769 4.626 2.652.085.048.172-.01.236-.058l14.212-10.494c.117-.088.289-.426.102-.532l-32.518-18.598c-1.543-.883-3.087-1.766-4.627-2.645-.241-.14-.583.45-.338.59l-.006.002ZM-23.2-7.55l37.59 21.201-.012-1.149L-23.2-8.747v1.197ZM29.048 5.164V1.808L14.39 12.5l.009 1.15 14.65-8.485Z"/><path fill="#F5F2EA" d="M-8.552-19.238 28.593 2.008l-14.21 10.494-37.135-21.294 14.2-10.446Z"/><path fill="#151515" d="M-8.722-18.942c10.839 6.198 21.68 12.4 32.519 18.597l4.626 2.646.103-.532-10.491 7.746-2.622 1.938c-.25.185-.537.357-.767.566-.28.26-.398.117-.096.184-.65-.145-1.429-.82-2-1.146C3.67 5.966-5.213.871-14.093-4.22c-2.83-1.623-5.66-3.244-8.486-4.868l-.103.533c4.732-3.483 9.468-6.964 14.2-10.447.238-.175.223-.737-.133-.474-4.732 3.483-9.468 6.963-14.2 10.446-.117.088-.287.426-.102.532L9.59 10.141c1.543.883 3.083 1.769 4.627 2.652.084.048.172-.01.235-.058L28.665 2.241c.117-.088.29-.427.102-.533L-3.75-16.889c-1.543-.883-3.086-1.766-4.627-2.646-.241-.139-.582.45-.338.59l-.006.003Z"/><path fill="#F5F2EA" d="m289.794 34.498 20.469 11.707-27.288 15.19-20.463-11.734 27.282-15.163Z"/><path fill="#151515" d="M289.625 34.795c6.822 3.903 13.644 7.803 20.469 11.707l.166-.575-20.789 11.571-4.895 2.724c-.435.242-.867.505-1.314.732-.374.188-.127.118-.205.097-.393-.1-.849-.487-1.196-.687l-2.313-1.327c-2.126-1.218-4.249-2.437-6.376-3.655-3.497-2.005-6.994-4.01-10.491-6.017l-.166.574c7.973-4.432 15.948-8.861 23.921-13.294l3.361-1.869c.227-.123.341-.755-.009-.562-7.973 4.433-15.948 8.862-23.921 13.294l-3.361 1.869c-.142.079-.38.454-.166.575 2.978 1.708 5.955 3.416 8.933 5.121 3.681 2.11 7.311 4.484 11.113 6.37.586.291.619.21 1.211-.12l4.044-2.25c4.457-2.479 8.915-4.961 13.369-7.44l9.253-5.153c.142-.078.381-.453.166-.574-6.822-3.903-13.644-7.804-20.469-11.707-.241-.139-.583.45-.338.59l.003.006Z"/><path fill="#F5F2EA" d="m299.334 36.219 20.469 11.707-27.288 15.187-20.463-11.731 27.282-15.163Z"/><path fill="#151515" d="M299.165 36.512c6.822 3.903 13.644 7.804 20.469 11.707l.166-.574-20.789 11.57-4.895 2.725c-.435.242-.867.505-1.314.731-.374.188-.127.118-.205.097-.393-.1-.849-.487-1.196-.686l-2.313-1.328-6.375-3.655c-3.498-2.005-6.995-4.01-10.492-6.017l-.166.575c7.973-4.433 15.948-8.862 23.921-13.294l3.361-1.87c.227-.123.341-.755-.009-.561-7.972 4.432-15.948 8.861-23.921 13.294l-3.361 1.868c-.142.079-.38.454-.166.575 2.978 1.708 5.955 3.417 8.933 5.122 3.681 2.11 7.311 4.484 11.113 6.37.586.29.619.209 1.211-.12l4.044-2.25 13.369-7.441 9.253-5.152c.142-.079.381-.454.166-.575-6.822-3.903-13.644-7.803-20.469-11.707-.241-.139-.583.45-.338.59l.003.006ZM47.715 14.48c3.367 4.801-.127 7.19-4.554 9.076-4.152 1.769-9.498 2.4-10.724-.106-1.014-2.074 1.181-5.593 4.85-8.23 3.666-2.636 9.456-2.131 10.428-.74Z"/><path fill="#F5F2EA" d="M46.362 13.848c3.17 2.449.362 6.068-4.204 8.17-4.1 1.886-7.73 3.25-9.075 1.372-1.343-1.878.538-5.533 4.204-8.17 3.666-2.636 7.731-2.41 9.075-1.372Z"/><path fill="#151515" d="M46.193 14.141c3.551 2.978-1.426 6.359-4.038 7.595-1.848.874-7.29 3.885-8.93 1.285-1.833-2.9 2.884-6.863 4.956-8.097 2.072-1.233 5.753-2.346 8.015-.78.223.154.574-.426.338-.59-3.165-2.188-8.048.224-10.51 2.38-1.709 1.497-5.272 5.578-2.944 7.96 1.151 1.18 3.168.657 4.53.243 2.45-.744 5.034-1.823 7.124-3.311 2.425-1.73 4.678-4.853 1.797-7.269-.2-.169-.559.406-.338.59v-.006Z"/><path fill="#151515" d="M38.072 15.009c.067 0-.093-.003-.033 0a6.928 6.928 0 0 1 .646.051c.532.06 1.064.16 1.577.309 1.344.384 2.657 1.097 3.367 2.349.52.913.601 1.986.471 3.011-.042.342.628.26.668-.045.123-.977.06-1.992-.354-2.896a4.67 4.67 0 0 0-1.51-1.812c-1.105-.8-2.48-1.209-3.82-1.384a7.826 7.826 0 0 0-.957-.076c-.38-.006-.498.49-.055.496v-.003Z"/><path fill="#151515" d="M41.817 15.623c1.305-1.065 3.204-1.566 4.78-.862.285.127.759-.281.378-.454-1.824-.816-4.086-.23-5.596 1.001-.344.281.179.526.438.315ZM203.253 94.684c3.367 4.802-.127 7.19-4.554 9.077-4.153 1.768-9.498 2.4-10.724-.106-1.015-2.074 1.181-5.594 4.85-8.23 3.666-2.637 9.455-2.132 10.428-.74Z"/><path fill="#F5F2EA" d="M201.9 94.052c3.17 2.45.362 6.068-4.204 8.17-4.101 1.886-7.731 3.25-9.075 1.372-1.344-1.877.538-5.533 4.204-8.17 3.666-2.636 7.731-2.409 9.075-1.372Z"/><path fill="#151515" d="M201.73 94.346c3.552 2.978-1.425 6.358-4.037 7.595-1.848.873-7.29 3.885-8.93 1.285-1.833-2.9 2.884-6.864 4.956-8.097 2.071-1.234 5.753-2.347 8.014-.78.224.154.574-.427.339-.59-3.165-2.189-8.048.224-10.51 2.38-1.709 1.496-5.272 5.578-2.944 7.96 1.151 1.18 3.168.656 4.53.242 2.449-.744 5.034-1.823 7.124-3.31 2.425-1.73 4.678-4.853 1.797-7.269-.2-.17-.559.405-.339.59v-.007Z"/><path fill="#151515" d="M193.426 95.105c2.12.03 4.72.88 5.771 2.857.495.934.58 2.001.45 3.035-.012.088.631.027.655-.175.121-.959.06-1.947-.35-2.833-.323-.702-.849-1.297-1.474-1.745-1.081-.777-2.416-1.164-3.723-1.34a7.575 7.575 0 0 0-.906-.078c-.145 0-.348.028-.466.124-.084.07-.105.148.04.151l.003.004Z"/><path fill="#151515" d="M197.355 95.821c1.307-1.067 3.201-1.566 4.78-.859.275.124.758-.272.378-.441-1.821-.816-4.086-.227-5.596 1.004-.345.28.181.508.435.299l.003-.003ZM295.064 48.062c-1.365-.14-3.708.018-5.058.287-.426.088-4.929-.248-.26-5.095.236-.29 3.992-3.661 4.149-3.721.257-1.754.761-3.59.958-4.487 2.331-8.587 9.615-13.21 18.158-9.727 6.52 2.48 10.836 9.645 10.44 16.545-.525 2.034-5.922 4.958-9.866 6.168a3.91 3.91 0 0 1-.356.29c-2.286 1.85-4.932 4.46-7.997 4.245-4.702-.33-6.333-3.98-10.168-4.508v.003Z"/><path fill="#F5F2EA" d="M293.962 39.768c3.053-2.322 7.667-1.699 10.865-.148 2.274 1.104 3.815 2.74 5.424 4.638 1.048 1.234 2.087 2.97 3.47 3.861.23.148.577-.435.338-.59-1.682-1.082-2.932-3.289-4.24-4.77-1.836-2.087-3.808-3.586-6.496-4.478-2.995-.995-6.867-.986-9.497 1.016-.236.178-.221.743.133.474l.003-.003ZM299.401 27.535c3.488-1.862 8.25-2.216 11.759-.154 5.871 3.447 7.592 11.731 8.453 17.881.045.324.507-.157.471-.405-.806-5.775-2.289-12.533-6.756-16.684-1.504-1.397-3.119-2.029-5.04-2.506-2.987-.741-6.191-.136-8.893 1.309-.23.12-.345.75.009.562l-.003-.003Z"/><path fill="#F5F2EA" d="M313.181 25.026a4.571 4.571 0 0 0-5.234 1.49c-.214.272-.03.71.251.354 1.096-1.403 2.977-1.865 4.641-1.255.269.1.586-.499.339-.59h.003Z"/><path fill="#F5F2EA" d="M309.931 26.51c0 .55-.761.995-1.7.995s-1.7-.444-1.7-.995c0-.55.761-1.354 1.7-1.354s1.7.804 1.7 1.354Z"/><path fill="#151515" d="M242.919 80.208c2.818 1.097 3.373-7.468-.374-6.725 0 0 .217 2.649.226 3.326 0 .236.136 3.16.148 3.396v.003Zm3.941-5.494c.577 2.79.091 6.059-2.084 8.06-.48.4-1.159.874-1.805.76a2.722 2.722 0 0 1-.203.498c-1.93 3.015-6.574 4.025-9.947 3.858-3.346-.33-7.327-1.049-9.417-3.948-.552-1.189-.157-2.597-.235-3.87.229-3.211.009-6.573.861-9.676.009-.003.093-.124.123-.184 1.299-2.035 3.902-2.742 6.146-3.15 4.086-.905 8.945.365 10.956 4.308 2.338-1.914 5.074 1.094 5.605 3.347v-.003Z"/><path fill="#F5F2EA" d="M232.325 73.486c3.268 0 5.916-.972 5.916-2.17 0-1.2-2.648-2.171-5.916-2.171-3.267 0-5.916.972-5.916 2.17 0 1.2 2.649 2.171 5.916 2.171ZM225.965 82.611v-8.296c0-.4-.489.012-.489.272v8.296c0 .4.489-.012.489-.272Z"/><path fill="#151515" d="M126.272 1.089c-.936 3.186-5.723 3.852-8.529 3.836-2.449-.015-7.296-.816-7.709-3.912-.139-1.034-.031-2.162-.046-3.205-.03-2.023-.057-4.045-.087-6.071-.021-1.548-.121-3.117-.064-4.662.106-2.77 3.582-3.55 5.844-3.834 2.814-.354 6.236-.145 8.733 1.321 1.957 1.15 2.084 2.715 2.114 4.726.037 2.446-.024 4.892-.093 7.335-.043 1.427.151 3.147-.187 4.547-.103.433.407.157.477-.12.347-1.449.157-3.22.199-4.7.072-2.566.142-5.136.088-7.703-.043-2.014-.36-3.559-2.259-4.671-2.691-1.579-6.375-1.745-9.383-1.285-2.208.335-5.56 1.29-5.995 3.915-.22 1.318 0 2.815.015 4.142.034 2.443.07 4.89.106 7.332.018 1.252-.251 2.97.302 4.155 1.398 3.01 6.284 3.492 9.117 3.25 2.833-.242 6.855-1.194 7.786-4.36.126-.432-.33-.381-.432-.04l.003.004Z"/><path fill="#151515" d="M111.659-6.963v6.346c0 1.198.015 1.96 1.036 2.788 2.258 1.838 6.547 1.82 9.068.605 1.012-.49 2.217-1.41 2.404-2.591.344-2.16.085-4.572.124-6.764.006-.4-.486.015-.489.272-.039 2.168.145 4.469-.121 6.619-.048.396.1-.055-.076.302-.184.38-.522.707-.842.97-1.709 1.406-4.258 1.476-6.345 1.216-1.969-.245-4.27-1.064-4.27-3.184v-6.854c0-.4-.489.012-.489.272v.003ZM126.069 239.495a8.221 8.221 0 0 0-.878-1.327c-.203-.251-.42-.502-.677-.702-.099-.091-.362-.275-.622-.468-3.337-2.525-6.716-5.01-10.062-7.523-3.654-2.742-7.29-5.506-10.947-8.242a243.756 243.756 0 0 0-3.29-2.428c-.075-.057-.156-.115-.232-.169.07-.03.14-.058.206-.088.546-.233 1.09-.475 1.646-.695 5.127-2.068 9.98-4.753 14.918-7.202.229-.07.462.097.688.227.94 1.563 2.564 2.887 4.376 3.099 2.51.272 4.08-2.368 3.673-4.629-.719-2.501-2.585-5.041-5.068-5.981-.646-.296-1.854.182-2.534.865-.096-.061-25.155 3.97-25.155 3.97-.315.115 0-38.06 0-38.06l-12.572.224v38.449c-.052-.015-1.196-.647-1.248-.665a2.943 2.943 0 0 1-.41-.181 1.001 1.001 0 0 1-.206-.133 7.284 7.284 0 0 0-.335-.16 45.796 45.796 0 0 0-1.008-.475l-.046-.024-.02-.009a.731.731 0 0 0-.086-.04l-.232-.102h.006c-.033-.013-.063-.034-.097-.046-.8-.366-1.621-.747-2.446-1.125-.009-.006-.02-.012-.039-.021l-.06-.027c-.227-.103-.465-.215-.704-.32l-.145-.07c-.103-.045-.232-.109-.368-.163a435.488 435.488 0 0 0-4.364-1.975c-1.65-.734-3.304-1.463-4.992-2.104-.73-.278-1.47-.532-2.205-.81-.401-.151-.797-.315-1.196-.478-.184-.076-.368-.148-.55-.221-.096-.039-.204-.096-.307-.105-.012 0-.015.012-.018.033 0 .042.039.1.081.148-.036-.012-.07-.012-.093 0-.39-.191-.843-.042-1.233.063-.072.013-.15.049-.15.133a2.49 2.49 0 0 0-.541.336s-.006 0-.006.006c-.22.112-.423.227-.607.33-5.702 3.141.018 10.026 4.512 10.818 1.286.287 2.775.278 3.847-.587 1.16-.931 1.887-2.812.852-4.075.981.864 1.972 1.714 2.968 2.557 1.734 1.461 3.473 2.918 5.2 4.388.296.25.592.507.894.758.145.124.293.248.441.372-.465.227-.93.463-1.386.705l-.075.039c.23.245.57.493.74.593.045.021.102.054.157.054.507-.23 1.002-.514 1.516-.735.897-.468 1.917-.704 2.868-1.061-.95.357-1.971.596-2.871 1.064-.51.221-1.01.505-1.516.735-.055 0-.112-.033-.158-.054a4.017 4.017 0 0 1-.74-.593c-1.476.777-2.932 1.603-4.381 2.422-1.453.819-2.893 1.66-4.337 2.5-1.489.871-2.977 1.745-4.475 2.61-1.49.849-2.981 1.693-4.479 2.527-2.947 1.645-5.883 3.305-8.83 4.947-1.398.777-2.797 1.557-4.2 2.331-.635.354-1.263.701-1.9 1.04l-.565.299c-.085.046-.166.1-.257.139-.093.012 0 .194.021.227.03.058.058.115.097.169-.012.01-.021.013-.036.022-.064.045-.206.118-.206.214 0 0 .006.006.006.009-4.388 3.003 1.25 9.673 5.445 10.301 3.135.632 7.686-1.106 7.462-4.852-.55-2.631-2.557-5.524-5.148-6.576a55.282 55.282 0 0 0 1.99-.581 214.33 214.33 0 0 0 5.03-1.66c3.35-1.134 6.7-2.277 10.042-3.425 1.637-.566 3.274-1.131 4.904-1.709 1.595-.562 3.18-1.146 4.775-1.699 1.492-.517 2.999-1.022 4.482-1.563.31-.115.625-.227.936-.345.755 1.6 2.47 2.555 4.194 2.854 2.643.614 5.427.034 7.873-1.043l.142-.063c.06.033.121.069.184.106.049.027.094.054.14.081.268.161.543.315.815.478 1.262.732 2.521 1.485 3.784 2.222 3.152 1.836 6.32 3.641 9.47 5.479 2.966 1.735 5.961 3.432 9.005 5.025.034.015.061.033.097.051l-.217.194c-2.773 3.175.86 8.175 4.04 9.527.369.118.755.172 1.139.172 1.156 0 2.322-.493 3.15-1.282 1.229-1.264 1.12-3.063 1.011-4.689.399-.674 1.444-.823 1.637-1.606.018-.102-.012-.081-.051-.139a.688.688 0 0 1 .075.055c.076.054.169.109.242.109.063 0 .109-.046.102-.179-.021-.263-.181-.541-.302-.774v-.018Z"/><path fill="#F5F2EA" d="M79.294 192.011v30.909c0 .399.49-.012.49-.272v-30.909c0-.399-.49.012-.49.272Z"/><path fill="#F5F2EA" d="M79.544 211.721c-1.706.819-3.412 1.636-5.115 2.455-.236.112-.354.735.009.563 1.706-.82 3.412-1.636 5.115-2.456.236-.111.354-.734-.009-.562ZM99.739 218.249c-1.323-.934-2.812-1.739-4.352-2.241-1.057-.344-3.056-.916-3.775.285-.719 1.2-.568 3.017-.57 4.302-.004 1.285-.164 3.081.329 4.336.126.326.564-.167.47-.405-.37-.95-.277-2.277-.301-3.269-.03-1.297-.203-2.984.253-4.224.894-2.434 6.23.832 7.607 1.805.22.158.574-.426.339-.589Z"/><path fill="#F5F2EA" d="M91.866 192.924v23.106c0 .399.489-.013.489-.273v-23.105c0-.399-.49.012-.49.272Z"/><path fill="#151515" d="M40.343 108.916c-4.364 17.793 10.527 71.246 10.557 71.539l3.464-5.176s-12.72-71.681-14.021-66.363Z"/><path fill="#151515" d="M40.105 108.976c-1.06 4.424-.915 9.137-.632 13.642.378 6.011 1.223 11.989 2.223 17.924 1.878 11.126 4.367 22.153 7.14 33.092.588 2.316 1.421 4.668 1.83 7.027.044.269.35-.009.413-.1l2.467-3.686c.365-.547.997-1.173 1.051-1.838.075-.907-.377-2.111-.538-2.996-.972-5.409-1.96-10.815-2.962-16.218-2.552-13.736-4.992-27.551-8.28-41.132-.445-1.826-.831-3.752-1.559-5.491-.28-.674-.858-1.333-1.15-.221-.112.43.404.155.477-.121.042-.16-.136.127-.151.1.057.097.166.179.199.297.136.474.377.94.528 1.415.574 1.811 1.012 3.667 1.447 5.517 1.398 5.933 2.6 11.916 3.787 17.894 2.45 12.347 4.741 24.726 6.973 37.113.245 1.355.49 2.706.728 4.061.012.069.042.154.039.223.021-.483.063-.208-.139 0-.25.26-.45.672-.65.971-.872 1.303-1.745 2.606-2.614 3.909l.413-.1c-.32-1.85-.978-3.697-1.443-5.517a514.427 514.427 0 0 1-3.304-13.618c-2.712-11.889-5.18-23.949-6.227-36.116-.456-5.297-.83-10.927.42-16.149.102-.432-.411-.157-.477.121l-.01-.003Z"/><path fill="#151515" d="M105.253 196.374c-11.38-1.603-54.353-15.916-54.353-15.916l3.464-5.176s35.898 10.794 51.019 16.826l-.13 4.266Z"/><path fill="#151515" d="M105.371 196.062c-7.867-1.13-15.637-3.77-23.227-6.047-8.612-2.582-17.183-5.306-25.73-8.094a925.533 925.533 0 0 1-5.345-1.756l.006.396c.985-1.473 1.97-2.942 2.954-4.415.133-.199.28-.55.471-.701.16-.127-.41.091-.175.169.235.079.483.145.725.218 3.09.934 6.172 1.884 9.256 2.839 10.69 3.317 21.372 6.697 31.932 10.407 2.585.907 5.164 1.838 7.719 2.827.263.103 1.118.33 1.178.435.154.266-.036 1.155-.045 1.458l-.082 2.709c-.012.396.483-.015.489-.272.043-1.421.088-2.845.13-4.267 0-.048-.024-.139-.075-.157-15.118-6.014-30.84-10.658-46.386-15.42-1.561-.477-3.123-.955-4.684-1.424-.118-.036-.242.133-.293.209l-3.464 5.176c-.051.076-.133.351.006.396 14.212 4.732 28.502 9.343 42.955 13.276 3.766 1.025 7.581 2.099 11.449 2.655.26.036.538-.577.233-.623l.003.006Z"/><path fill="#151515" d="M105.253 196.374c33.452-10.546 46.057-30.447 46.057-30.447v-3.643s-20.276 21.346-45.927 29.824l-.13 4.266Z"/><path fill="#151515" d="M105.196 196.679c11.663-3.704 22.83-9.128 32.521-16.653 4.814-3.74 9.437-8.01 13.046-12.956.224-.305.58-.671.719-1.031.414-1.076.075-2.739.075-3.891 0-.266-.256-.158-.371-.04-2.573 2.706-5.406 5.195-8.25 7.601-6.638 5.615-13.768 10.686-21.369 14.912-5.152 2.864-10.531 5.316-16.124 7.181-.181.061-.296.257-.302.442-.042 1.421-.087 2.845-.13 4.266-.012.396.484-.015.49-.272.042-1.421.087-2.845.13-4.266l-.302.441c16.229-5.418 30.963-15.529 43.341-27.23a73.29 73.29 0 0 0 2.767-2.724l-.372-.039v1.965c0 .408-.042.853 0 1.261.021.193-.093.568.061.187-.109.272-.369.542-.538.774-1.166 1.612-2.467 3.13-3.817 4.59-5.958 6.434-13.14 11.722-20.765 16-6.565 3.683-13.529 6.595-20.699 8.871-.238.076-.437.714-.114.611h.003Z"/><path fill="#F5F2EA" d="M40.796 108.916c1.755-6.522 47.138-31.115 49.107-29.104 2.923 2.987 13.572 64.79 13.572 64.79l-49.107 30.68s-14.994-61.075-13.572-66.363v-.003Z"/><path fill="#151515" d="M41.01 108.937c.324-1.113 1.363-2.032 2.175-2.794 1.386-1.3 2.902-2.461 4.433-3.579 4.334-3.17 8.918-6.002 13.539-8.732a283.7 283.7 0 0 1 14.7-8.112c3.636-1.863 7.336-3.774 11.198-5.131.571-.2 1.927-.856 2.555-.557.505.24.734 1.303.9 1.772 1.145 3.266 1.86 6.706 2.621 10.078 2.35 10.443 4.325 20.974 6.27 31.498.854 4.62 1.691 9.243 2.512 13.866.275 1.542.547 3.087.819 4.629.139.786.139 1.85.453 2.591.042.097.039.233.057.339l.233-.484-17.73 11.075-26.769 16.723-3.524 2.201c-.284.179-.616.336-.879.548-.31.251-.051.015.021.163-.272-.566-.332-1.361-.48-1.965-.36-1.485-.719-2.973-1.075-4.457-2.546-10.61-5.022-21.237-7.335-31.901-1.169-5.382-2.304-10.773-3.295-16.191-.631-3.447-1.438-7.033-1.459-10.552 0-.369 0-.747.088-1.107.109-.429-.408-.157-.477.121-.242.962-.085 2.062.009 3.03.172 1.799.45 3.589.746 5.373.894 5.406 2.005 10.772 3.143 16.13 2.438 11.477 5.095 22.909 7.825 34.32.61 2.552 1.223 5.104 1.848 7.652.028.112.154.133.242.079l16.625-10.386c8.79-5.49 17.582-10.984 26.372-16.475 2.036-1.273 4.074-2.546 6.11-3.815.16-.1.262-.294.232-.484-1.069-6.204-2.183-12.4-3.316-18.592-2.002-10.933-4.043-21.866-6.432-32.723-.818-3.713-1.61-7.468-2.778-11.09-.218-.675-.444-1.818-.979-2.338-.462-.45-1.12-.241-1.697-.096-3.455.868-6.789 2.679-9.96 4.245-5.019 2.476-9.944 5.155-14.791 7.948-4.847 2.794-9.712 5.745-14.339 8.965-2.832 1.972-6.209 4.106-8.217 6.994-.254.365-.486.752-.613 1.182-.127.429.332.381.432.039h-.012Z"/><path fill="#F5F2EA" d="M103.471 192.105c11.597.22 49.696-28.73 47.277-30.26-3.53-2.234-47.277-17.246-47.277-17.246l-49.107 30.68s43.638 16.723 49.107 16.826Z"/><path fill="#151515" d="M103.356 192.416c2.456.021 4.896-.886 7.136-1.805 3.177-1.3 6.224-2.918 9.202-4.623 6.955-3.985 13.608-8.532 19.989-13.379 2.549-1.935 5.067-3.924 7.459-6.053 1.253-1.116 2.854-2.352 3.684-3.852.586-1.055-.057-1.276-.981-1.699-2.126-.974-4.334-1.784-6.517-2.609-12.536-4.744-25.222-9.107-37.891-13.476-.583-.2-1.44-.705-2.041-.557-.979.239-2.172 1.358-3.014 1.884-5.047 3.151-10.09 6.304-15.136 9.455l-30.302 18.93-.583.363c-.111.069-.401.483-.166.574 13.55 5.191 27.164 10.383 41.005 14.755 2.56.81 5.435 2.001 8.153 2.086.266.009.529-.614.233-.623-2.325-.072-4.766-1.037-6.961-1.714-4.125-1.273-8.208-2.682-12.279-4.112-8.172-2.869-16.295-5.875-24.398-8.929-1.806-.68-3.612-1.363-5.415-2.053l-.166.575c8.311-5.194 16.625-10.386 24.936-15.58 5.626-3.513 11.252-7.03 16.875-10.543l5.403-3.374c.489-.306 1.014-.584 1.479-.926.203-.148.541-.229.269-.232.329.003.791.272 1.096.378a2761.898 2761.898 0 0 1 10.175 3.528c6.997 2.44 13.985 4.901 20.949 7.429 4.801 1.744 9.848 3.295 14.432 5.581.383.191.586.188.562.556-.031.466-.931 1.207-1.224 1.515-1.754 1.842-3.744 3.471-5.716 5.068-5.895 4.78-12.125 9.182-18.546 13.224-5.653 3.562-11.759 7.42-18.282 9.137-1.042.276-2.108.481-3.189.472-.266 0-.526.62-.233.623l.003.006Z"/><path fill="#F5F2EA" d="M79.007 191.458c4.18 1.197 8.36 2.391 12.539 3.588.244.07.534-.535.232-.622-4.18-1.198-8.359-2.392-12.538-3.589-.245-.07-.535.535-.233.623ZM104.556 190.65v6.764c0 .399.489-.012.489-.272v-6.764c0-.399-.489.012-.489.272Z"/></g><defs><clipPath id="a"><path fill="#fff" d="M-103-136h488v384h-488z"/></clipPath></defs></svg>